<svg xmlns="http://www.w3.org/2000/svg" viewBox="0 0 52.6 43"><path d="M0 42.7c0-.2.1-.3.3-.3h5.1c.1 0 .3 0 .4-.1.1-.2.2-.3.2-.4l.1-.8H.7c-.1 0-.3 0-.3-.1-.1-.1-.1-.2-.1-.3l.5-3.5c0-.1.1-.3.2-.3.1-.1.2-.1.4-.1H9c.1 0 .2 0 .3.1.1.1.1.2.1.3l-.8 5.4c0 .1-.1.3-.2.3 0 0-.1.1-.3.1H.3c-.1 0-.1 0-.2-.1s-.1-.1-.1-.2zm6.6-5c0-.1 0-.3-.1-.3-.1-.1-.2-.1-.3-.1H4c-.1 0-.3 0-.4.1-.1.1-.2.2-.2.3L3.2 40c0 .1 0 .3.1.3.1.1.2.1.3.1h2.6l.4-2.7zm10.2-.8c0 .2-.1.3-.3.3h-1.9c-.1 0-.3 0-.4.1-.1.1-.2.2-.2.3l-.4 2.9c0 .1-.1.3-.2.3-.1.1-.2.1-.4.1h-1.8c-.1 0-.2 0-.3-.1-.1-.1-.1-.2-.1-.3l.5-3.5c0-.1.1-.3.2-.3.1-.1.2-.1.4-.1h4.7c.1 0 .1 0 .2.1v.2zm9.7 3.7c0 .1-.1.3-.2.3s-.2.1-.4.1h-7.7c-.1 0-.2 0-.3-.1-.1-.1-.1-.2-.1-.3l.5-3.5c0-.1.1-.3.2-.3.1-.1.2-.1.4-.1h7.7c.1 0 .2 0 .3.1.1.1.1.2.1.3l-.5 3.5zm-3.3-.1c.1 0 .3 0 .4-.1.1-.1.2-.2.2-.3l.3-2.3c0-.1 0-.3-.1-.3-.1-.1-.2-.1-.3-.1h-2.1c-.1 0-.3 0-.4.1-.1.1-.2.2-.2.3l-.3 2.2c0 .1 0 .3.1.3.1.1.2.1.3.1h2.1zm14-3.9c.1 0 .2 0 .3.1.1.1.1.2.1.3l-.5 3.5c0 .1-.1.3-.2.3s-.2.1-.4.1h-7.7c-.1 0-.2 0-.3-.1-.1-.1-.1-.2-.1-.3l.5-3.5c0-.1.1-.3.2-.3.1-.1.2-.1.4-.1h1.8c.1 0 .2 0 .3.1.1.1.1.2.1.3l-.3 3c0 .1 0 .3.1.3.1.1.2.1.3.1h2.1c.1 0 .3 0 .4-.1.1-.1.2-.2.2-.3l.4-2.9c0-.1.1-.3.2-.3.1-.1.2-.1.4-.1h1.7zm4.5 5.9c0 .1-.1.3-.2.3-.1.1-.2.1-.4.1h-1.8c-.1 0-.2 0-.3-.1-.1-.1-.1-.2-.1-.3l.8-5.4c0-.1.1-.3.2-.3.1-.1.2-.1.4-.1H48c.1 0 .2 0 .3.1.1.1.1.2.1.3l-.5 3.5c0 .1-.1.3-.2.3s-.2.1-.4.1h-5.4l-.2 1.5zm2.9-2c.1 0 .3 0 .4-.1.1-.1.2-.2.2-.3l.3-2.3c0-.1 0-.3-.1-.3-.1-.1-.2-.1-.3-.1H43c-.1 0-.3 0-.4.1-.1.1-.2.2-.2.3l-.4 2.7h2.6zm-23.5-19c-1.4 1.8-3.1 3.6-4.9 5.3-1.8 1.7-3.5 3-5.1 4-1.2.8-2.4 1.4-3.7 1.8-1.2.4-2.4.6-3.4.6-.4 0-.8 0-1.3-.1s-.9-.2-1.3-.4-.7-.5-1-.9c-.3-.4-.4-.9-.4-1.6 0-.8.3-1.8.9-3.2.6-1.3 1.3-2.7 2.1-4.2.8-1.4 1.6-2.8 2.4-4.1.8-1.3 1.4-2.3 1.9-2.9.3-.5.8-.9 1.6-1.2.7-.3 1.2-.5 1.5-.5.3 0 .4.1.4.3 0 .1 0 .3-.1.5s-.2.4-.3.5c-.8 1.2-1.6 2.5-2.4 3.9-.8 1.4-1.5 2.8-2.2 4.2-.7 1.3-1.2 2.6-1.6 3.7-.4 1.1-.6 2-.6 2.7 0 .7.2 1.2.6 1.6.5.3 1.1.5 1.7.5 1.2 0 2.5-.4 3.9-1.2 1.4-.8 2.8-1.8 4.2-2.9 1.4-1.1 2.7-2.3 3.9-3.6 1.2-1.3 2.1-2.3 2.8-3.2.3-.3.5-.4.5-.2.1.1 0 .3-.1.6zM18.5 5.6c0 1.2-.5 2.4-1.5 3.6-1 1.2-2.2 1.8-3.5 1.8-1.2 0-1.8-.6-1.8-1.8 0-1.3.5-2.5 1.4-3.7.9-1.2 2.1-1.8 3.5-1.8 1.3 0 1.9.7 1.9 1.9z" fill="#121D21"/><linearGradient id="a" gradientUnits="userSpaceOnUse" x1="24.577" y1="0" x2="24.577" y2="33.669"><stop offset="0" stop-color="#ec2214"/><stop offset="1" stop-color="#a21400"/></linearGradient><path fill="url(#a)" d="M37.3.6c-.5.1-1 .3-1.6.7-.6.3-1 .7-1.3 1.2-1.4 1.9-2.7 3.9-4 6-1.3 2.1-2.5 4.2-3.7 6.3h11.1c.2.1.3.2.3.4 0 .1-.1.2-.2.3h-2.1c-1 0-2 .1-3.1.1-1.1.1-2.3.1-3.5.2-1.2.1-2.2.1-3.1.2-1.7 3-2.9 5.5-3.8 7.6-.9 2.1-1.3 3.9-1.3 5.4 0 2.1 1 3.2 2.9 3.2 1 0 2-.3 3.3-.8 1.2-.5 2.5-1.2 3.9-2 .2-.2.4-.2.5 0 .2.2.1.4-.2.5-2 1.3-3.9 2.3-5.6 2.9-1.7.6-3.5.9-5.3.9-1 0-1.8-.3-2.5-.8-.7-.6-1.1-1.5-1.1-2.9 0-1.2.5-2.9 1.6-5.3 1.1-2.3 2.6-5.2 4.7-8.6-.7.1-11.4.4-11.6.4-.3 0-.4-.1-.4-.4.2-.4.6-.8 1.2-1.3l11.6-.1c.5-.9 1.1-1.9 1.8-3s1.3-2.2 2-3.3c.7-1.1 1.3-2.2 2-3.2s1.3-2 1.8-2.9c.7-.3 1.6-.7 2.7-1.2 1.2-.5 2.2-.9 3.1-1.2.1 0 .2.1.3.2 0 .3-.1.4-.4.5z"/><path fill="#121D21" d="M52.4 21.5c-1.4 1.8-3.1 3.6-4.9 5.3-1.8 1.7-3.5 3-5.1 4-1.2.8-2.4 1.4-3.7 1.8-1.3.4-2.4.6-3.4.6-.4 0-.8 0-1.3-.1s-.9-.2-1.3-.4-.7-.5-1-.9c-.3-.4-.4-.9-.4-1.6 0-.8.3-1.8.9-3.2.6-1.3 1.3-2.7 2.1-4.2.8-1.4 1.6-2.8 2.4-4.1.8-1.3 1.4-2.3 1.9-2.9.3-.5.8-.9 1.6-1.2.7-.3 1.2-.5 1.5-.5.3 0 .4.1.4.3 0 .1 0 .3-.1.5s-.2.4-.3.5c-.8 1.2-1.6 2.5-2.4 3.9-.8 1.4-1.5 2.8-2.2 4.2-.7 1.3-1.2 2.6-1.6 3.7-.4 1.1-.6 2-.6 2.7 0 .7.2 1.2.6 1.6.4.3.9.5 1.6.5 1.2 0 2.5-.4 3.9-1.2 1.4-.8 2.8-1.8 4.2-2.9 1.4-1.1 2.7-2.3 3.9-3.6 1.2-1.3 2.1-2.3 2.8-3.2.3-.3.5-.4.5-.2.2.1.2.3 0 .6zM48.3 5.6c0 1.2-.5 2.4-1.5 3.5-1 1.2-2.2 1.8-3.5 1.8-1.2 0-1.8-.6-1.8-1.8 0-1.3.5-2.5 1.4-3.7.9-1.2 2.1-1.8 3.5-1.8 1.2.1 1.9.8 1.9 2z"/></svg>