<svg xmlns="http://www.w3.org/2000/svg" viewBox="0 0 208 38"><path d="M197 38a16.8 16.8 0 0 1-9.2-2.7l-.4-.2 2.2-6.5.6.4a11.5 11.5 0 0 0 6.6 2.4c2 0 4-.8 4-2.6s-.7-2.2-4.3-3.4-7.8-3.4-7.8-8.7 4.2-9.4 10.1-9.4a14.7 14.7 0 0 1 7.5 2.1l.4.2-1.7 6.6-.7-.4A10 10 0 0 0 199 14c-1.9 0-3.1 1-3.1 2.4s.8 1.9 3.2 2.7c4.7 1.5 8.9 3.4 8.9 9.3s-4.6 9.6-11 9.6zm-81.5 0a15.1 15.1 0 1 1 11.4-25l-5.2 4.4a8.3 8.3 0 1 0-.9 11.9l.9-.9 5.2 4.4a15 15 0 0 1-11.4 5.2zM160 22.8a15.1 15.1 0 1 0-15.4 15.1h.3a15.1 15.1 0 0 0 13.6-8.7h-8.4a8.2 8.2 0 0 1-5.3 1.9h-.2a8.3 8.3 0 0 1-7.4-4.9h22.2a15.1 15.1 0 0 0 .4-3.4zm-15-8.3a8.3 8.3 0 0 1 7.6 4.9h-15.2a8.3 8.3 0 0 1 7.6-4.9zm35.4-6.8a15 15 0 0 0-8.3 2.5V7.7h-6.8v30.2h6.8V22.6a8.3 8.3 0 0 1 8.3-8.1 8.2 8.2 0 0 1 3.1.6l2.5-6.3a14.9 14.9 0 0 0-5.6-1.1z" fill="#0c66a5"/><path d="M88.5 37.9v-15a8.3 8.3 0 1 0-16.6 0v15h-6.8V7.7h6.8V10l.3-.2a15.9 15.9 0 0 1 7.9-2.1c8.7 0 15.1 6.3 15.1 14.9v15.3zM0 38V0h6.8v31.1h18V38H0zm51.4-.1v-2.5l-.3.2a15.1 15.1 0 1 1 0-25.7l.3.2V7.7h6.8v30.2h-6.8zm-8.3-23.4a8.3 8.3 0 0 0-.1 16.6h.2a8.3 8.3 0 0 0 0-16.6z" fill="#13366a"/></svg>