<?xml version="1.0" encoding="utf-8"?>
<!-- Generator: Adobe Illustrator 22.0.1, SVG Export Plug-In . SVG Version: 6.00 Build 0)  -->
<svg version="1.1" id="レイヤー_1" xmlns="http://www.w3.org/2000/svg" xmlns:xlink="http://www.w3.org/1999/xlink" x="0px"
	 y="0px" viewBox="0 0 343 85" style="enable-background:new 0 0 343 85;" xml:space="preserve">
<style type="text/css">
	.st0{fill:#EE7800;}
</style>
<g>
	<g>
		<path d="M106.5,60.2c0-0.3,0-0.6,0-0.9c0-6.6,0-13.2,0-19.8c0-1.6,0-3.1,0.2-4.7c0.4-3.6,1.8-6.2,5.7-6.8c3.4-0.5,6.3,1,7.5,4.2
			c0.5,1.3,0.8,2.8,0.8,4.3c0.1,7.6,0.1,15.2,0.1,22.8c0,0.3,0,0.6,0,0.9c2.4,0,4.8,0,7.2,0c0-0.4,0-0.7,0-1.1c0-8,0-16.1,0.1-24.1
			c0.1-3.8,2.4-6.3,6.1-6.9c3.5-0.6,6.4,1.2,7.4,4.5c0.3,1,0.5,2,0.5,3c0.1,4,0.1,8.1,0.1,12.1c0,3.8,0,7.6,0,11.5c0,0.3,0,0.6,0,1
			c2.4,0,4.7,0,7.1,0c0-0.2,0-0.4,0-0.5c0-8.6,0-17.2,0-25.8c0-2.1-0.5-4.1-1.6-6c-3.2-5.4-9.7-7.9-16.1-6.1
			c-2.9,0.8-5.3,2.3-7.2,4.8c-0.3-0.3-0.5-0.6-0.7-0.8c-1.3-1-2.4-2.3-3.9-3c-4.1-2.2-8.5-2-12.6-0.1c-4.8,2.2-7.6,6.1-7.5,11.6
			c0,8.3,0,16.7,0,25c0,0.3,0,0.6,0,0.9C101.9,60.2,104.2,60.2,106.5,60.2z M205.5,53.6c0.1-0.2,0.1-0.2,0.2-0.3
			c5.7-6.9,11.3-13.8,17-20.8c0.8-1,1.5-2.1,1.9-3.3c1.1-3.4-0.6-6.1-4.1-6.9c-0.8-0.2-1.6-0.3-2.4-0.3c-6.2,0-12.4,0-18.5,0
			c-0.5,0-0.7,0.2-0.7,0.7c0,1.8,0,3.7,0,5.5c0,0.2,0.1,0.4,0.1,0.5c3.8,0,7.6,0,11.4,0c0-1.9,0-3.8,0-5.9c2.2,2,4.4,3.9,6.5,5.9
			c-0.2,0.2-0.3,0.4-0.5,0.7c-5.6,6.9-11.3,13.8-16.9,20.7c-1.3,1.6-1.9,3.5-2,5.5c-0.2,2.5,2.1,4.6,4.8,4.6c7.4,0,14.7,0,22.1,0
			c0.2,0,0.4,0,0.6-0.1c0-2.2,0-4.4,0-6.6c-4.3,0-8.5,0-12.9,0c0,1.9,0,3.8,0,5.9C209.8,57.4,207.7,55.5,205.5,53.6z M294.9,22
			c-1,0-1.9,0-2.8,0c-4.1,0.1-8.1,0-12.2,0.3c-3.9,0.3-7.3,2.2-10.1,5.1c-4.8,5.1-6.3,11.2-4.8,18c1.5,7,7.7,14.8,18,14.7
			c3.7,0,7.3,0,11,0c0.3,0,0.6,0,0.9,0c0-2.3,0-4.5,0-6.7c-0.3,0-0.6,0-0.9,0c-3.1,0-6.3,0-9.4,0c-7.9,0-12.6-6.8-12.4-12.4
			c0.2-6.8,5.5-12.3,12.3-12.3c3.2,0,6.4,0,9.6,0c0.3,0,0.6,0,0.9,0C294.9,26.5,294.9,24.3,294.9,22z M230.2,22.1
			c0,12.7,0,25.4,0,38.1c2.4,0,4.6,0,7,0c0-0.4,0-0.6,0-0.9c0-6.3,0-12.5,0-18.8c0-2.2,0.3-4.3,1.2-6.3c1.4-3.4,3.8-5.7,7.5-6.1
			c1-0.1,2,0,3,0c0-2.4,0-4.6,0-6.8c-2.2-0.1-4.3,0-6.4,0.7c-2.3,0.8-4.1,2.3-5.6,4.4c0-1.6,0-2.9,0-4.3
			C234.6,22.1,232.4,22.1,230.2,22.1z M260,22.1c-0.3,0-0.6,0-0.8,0c-1.8,0-3.5,0-5.3,0c-0.8,0-1,0.2-0.9,0.9c0,12.1,0,24.2,0,36.4
			c0,0.3,0,0.6,0,0.8c2.4,0,4.8,0,7.1,0C260,47.4,260,34.8,260,22.1z M256.6,9.3c-2.4,0-4.3,1.8-4.3,4.1c0,2.4,1.9,4.4,4.4,4.4
			c2.4,0,4-1.7,4-4.2C260.7,11.1,259,9.3,256.6,9.3z"/>
		<path d="M106.5,60.2c-2.3,0-4.6,0-7,0c0-0.3,0-0.6,0-0.9c0-8.3,0-16.7,0-25c0-5.5,2.7-9.4,7.5-11.6c4.1-1.9,8.5-2.1,12.6,0.1
			c1.4,0.8,2.6,2,3.9,3c0.3,0.2,0.5,0.5,0.7,0.8c1.9-2.5,4.3-4,7.2-4.8c6.4-1.7,12.9,0.7,16.1,6.1c1.1,1.8,1.6,3.8,1.6,6
			c0,8.6,0,17.2,0,25.8c0,0.2,0,0.3,0,0.5c-2.3,0-4.6,0-7.1,0c0-0.3,0-0.7,0-1c0-3.8,0-7.6,0-11.5c0-4,0-8.1-0.1-12.1
			c0-1-0.2-2.1-0.5-3c-1-3.4-4-5.1-7.4-4.5c-3.7,0.6-6,3.1-6.1,6.9c-0.1,8-0.1,16.1-0.1,24.1c0,0.3,0,0.7,0,1.1c-2.4,0-4.8,0-7.2,0
			c0-0.3,0-0.6,0-0.9c0-7.6,0-15.2-0.1-22.8c0-1.4-0.3-2.9-0.8-4.3c-1.2-3.2-4.1-4.7-7.5-4.2c-3.8,0.6-5.3,3.2-5.7,6.8
			c-0.2,1.6-0.2,3.1-0.2,4.7c0,6.6,0,13.2,0,19.8C106.5,59.6,106.5,59.9,106.5,60.2z"/>
		<path d="M205.5,53.6c2.2,1.9,4.3,3.9,6.5,5.9c0-2.1,0-4,0-5.9c4.3,0,8.6,0,12.9,0c0,2.2,0,4.4,0,6.6c-0.2,0-0.4,0.1-0.6,0.1
			c-7.4,0-14.7,0-22.1,0c-2.7,0-5-2.2-4.8-4.6c0.1-2,0.7-3.9,2-5.5c5.6-6.9,11.3-13.8,16.9-20.7c0.2-0.2,0.3-0.4,0.5-0.7
			c-2.1-1.9-4.3-3.8-6.5-5.9c0,2,0,3.9,0,5.9c-3.9,0-7.6,0-11.4,0c0-0.2-0.1-0.3-0.1-0.5c0-1.8,0-3.7,0-5.5c0-0.5,0.2-0.7,0.7-0.7
			c6.2,0,12.4,0,18.5,0c0.8,0,1.6,0.1,2.4,0.3c3.5,0.7,5.2,3.5,4.1,6.9c-0.4,1.2-1.1,2.3-1.9,3.3c-5.6,7-11.3,13.9-17,20.8
			C205.6,53.3,205.6,53.4,205.5,53.6z"/>
		<path d="M294.9,22c0,2.3,0,4.5,0,6.8c-0.3,0-0.6,0-0.9,0c-3.2,0-6.4,0-9.6,0c-6.8,0-12.1,5.5-12.3,12.3
			c-0.2,5.6,4.5,12.4,12.4,12.4c3.1,0,6.3,0,9.4,0c0.3,0,0.6,0,0.9,0c0,2.2,0,4.4,0,6.7c-0.3,0-0.6,0-0.9,0c-3.7,0-7.3,0-11,0
			c-10.3,0-16.5-7.7-18-14.7c-1.4-6.7,0.1-12.9,4.8-18c2.7-2.9,6.1-4.8,10.1-5.1c4-0.4,8.1-0.3,12.2-0.3C293,22,293.9,22,294.9,22z"
			/>
		<path d="M230.2,22.1c2.2,0,4.4,0,6.6,0c0,1.4,0,2.7,0,4.3c1.5-2.2,3.3-3.6,5.6-4.4c2.1-0.7,4.2-0.8,6.4-0.7c0,2.2,0,4.4,0,6.8
			c-1,0-2-0.1-3,0c-3.8,0.4-6.1,2.7-7.5,6.1c-0.9,2-1.2,4.1-1.2,6.3c0,6.3,0,12.5,0,18.8c0,0.3,0,0.6,0,0.9c-2.3,0-4.6,0-7,0
			C230.2,47.5,230.2,34.8,230.2,22.1z"/>
		<path d="M260,22.1c0,12.7,0,25.4,0,38.1c-2.3,0-4.6,0-7.1,0c0-0.3,0-0.5,0-0.8c0-12.1,0-24.2,0-36.4c0-0.7,0.2-1,0.9-0.9
			c1.8,0.1,3.5,0,5.3,0C259.5,22.1,259.7,22.1,260,22.1z"/>
		<path d="M256.6,9.3c2.4,0,4.1,1.8,4.2,4.2c0,2.5-1.6,4.2-4,4.2c-2.4,0-4.4-1.9-4.4-4.4C252.3,11.1,254.2,9.3,256.6,9.3z"/>
		<path d="M193.2,44.5c0-2.5,0.1-4.9-0.1-7.4c-0.5-6.6-3.9-11.2-9.8-14c-4.5-2.1-9.4-2.3-14.2-1.4c-6.2,1.2-10.7,4.6-13.3,10.4
			c-1.8,3.9-2.1,8-1.4,12.2c1.2,7.7,5.5,13,12.8,15.8c1.3,0.5,2.7,0.6,4.1,0.9c1.5,0,2.9,0,4.4,0c0.1,0,0.2-0.1,0.4-0.1
			c3.6-0.4,6.8-1.8,9.5-4.1c0.1-0.1,0.3-0.2,0.6-0.3c0,1.3,0,2.5,0,3.7c2.4,0,4.8,0,7.2,0c0-0.4,0-0.7,0-1
			C193.2,54.3,193.2,49.4,193.2,44.5z M180.5,51.7c-5.6,4.6-14.1,2.9-17.8-3.8c-2.2-4.1-2.3-8.4-0.7-12.7c1.4-3.7,4.4-5.9,8.1-6.8
			c3.3-0.8,6.7-0.5,9.8,0.9c3.8,1.8,5.9,4.8,5.9,9c0,0.4,0,0.9,0,1.3C186.2,44.6,184.3,48.6,180.5,51.7z"/>
		<path d="M336.6,35.7c-1.1-6.3-4.7-10.5-10.4-12.9c-4.3-1.8-8.9-1.9-13.5-1.1c-5.9,1.1-10.3,4.2-13,9.6c-2.3,4.6-2.7,9.5-1.6,14.4
			c1.7,7.5,6.3,12.5,13.8,14.8c0.9,0.3,2,0.4,2.9,0.6c1.5,0,2.9,0,4.4,0c1.3-0.3,2.7-0.5,4-0.9c2.1-0.6,4-1.8,5.8-3.2
			c0.2-0.1,0.3-0.3,0.6-0.5c0,1.3,0,2.5,0,3.8c2.5,0,4.8,0,7.2,0c0-8.1,0-16.2,0-24.2C336.7,35.9,336.6,35.8,336.6,35.7z
			 M324.1,51.8c-5.9,4.8-14.7,2.7-18.1-4.5c-1.8-3.8-1.9-7.7-0.5-11.6c1.5-4.3,4.9-6.6,9.2-7.4c2.9-0.5,5.8-0.2,8.6,1
			c4,1.6,6.2,5,6.2,9.3c0,0.4,0,0.8,0,1.1C329.9,44.6,327.9,48.6,324.1,51.8z"/>
	</g>
	<g>
		<g>
			<g>
				<path class="st0" d="M63.6,12.3c-0.3-0.5-0.6-1.1-0.9-1.5c-0.4-0.7,0.1-0.9,1.1-0.4c0.7,0.3,1.3,0.6,1.9,0.9
					c0.9,0.4,1.2,0.3,0.8-0.3c-0.3-0.4-0.6-0.8-0.9-1.1c-0.4-0.5-1.4-1.2-2.3-1.6c-0.6-0.3-1.2-0.6-1.9-0.8
					c-0.9-0.4-1.4-0.3-1.1,0.1c0.3,0.3,0.5,0.7,0.8,1c0.4,0.5-0.2,0.7-1.3,0.3c-0.8-0.2-1.6-0.5-2.4-0.7c-2.3-0.6-4.8-1.1-7.3-1.4
					c-1.4-0.2-2.6-0.7-2.7-1.2c-0.1-0.3-0.1-0.6-0.2-0.9C47.3,4.4,46.2,4,45,4c-0.9,0-1.7,0-2.6,0c-1.2,0-2.3,0.4-2.4,0.7
					C40,5,39.9,5.3,39.9,5.6c-0.1,0.5,1,0.8,2.4,0.8c1,0,1.9,0,2.9,0c1.4,0,2.6,0.6,2.7,1.2C48,8,48.1,8.5,48.2,9
					c0.1,0.8,1.5,1.6,3.1,1.7c1.1,0.1,2.1,0.3,3.1,0.5c2.8,0.5,5.4,1.1,7.8,1.9C63.4,13.5,64,13.1,63.6,12.3z"/>
				<path class="st0" d="M64.7,20.4c1.3,0.4,2.6,1.7,3,3.1c0.2,1,0.5,2,0.7,3.1c0.3,1.6,1.5,3.1,2.6,3.3c0.7,0.2,1.5,0.4,2.1,0.5
					c0.9,0.2,1.4-0.7,1.1-2.1c-0.2-1-0.4-1.9-0.7-2.8c-0.4-1.3-1.4-2.6-2.3-3c-0.7-0.3-1.4-0.5-2.1-0.8c-1.1-0.4-2.4-1.7-2.8-2.9
					c-0.3-0.8-0.6-1.6-0.8-2.3c-0.4-1-1.7-2.2-2.9-2.5c-0.9-0.3-1.8-0.5-2.7-0.8c-2.7-0.7-5.5-1.2-8.5-1.6c-1.6-0.2-2.8,0.5-2.7,1.5
					c0.1,0.8,0.2,1.6,0.3,2.4c0.1,1.3-1.3,2.3-3.2,2.2c-1.3,0-2.6,0-3.9,0c-1.9,0-3.5,1.3-3.6,2.8c-0.1,1.1-0.1,2.2-0.2,3.4
					c-0.1,1.8,1.5,3.2,3.6,3.2c1.5,0,2.9,0,4.4,0c2.1,0,3.7-1.4,3.6-3.1c-0.1-1.2-0.1-2.3-0.2-3.4c-0.1-1.5,1.3-2.6,3.1-2.4
					c1.2,0.1,2.4,0.3,3.5,0.4C59.2,19.1,62,19.7,64.7,20.4z"/>
			</g>
			<path class="st0" d="M58,20.3c-1.4-0.2-2.4,0.6-2.3,1.9c0.1,0.9,0.2,1.9,0.3,2.9c0.2,1.5,1.5,2.8,3,3c1,0.1,2,0.2,3,0.4
				c1.3,0.2,2.2-0.8,2-2.2c-0.2-0.9-0.3-1.9-0.5-2.8c-0.3-1.2-1.5-2.4-2.7-2.7C59.9,20.6,58.9,20.5,58,20.3z"/>
			<g>
				<path class="st0" d="M22.3,13c-0.6,0.1-1.2,0.2-1.8,0.3c-0.8,0.2-0.8-0.4-0.1-1.2c0.5-0.5,1-1.1,1.4-1.5c0.7-0.7,0.6-1-0.1-0.8
					c-0.5,0.2-0.9,0.3-1.4,0.5c-0.6,0.2-1.6,1-2.2,1.6c-0.5,0.5-0.9,1-1.4,1.5c-0.7,0.8-0.8,1.2-0.2,1c0.4-0.2,0.8-0.3,1.3-0.4
					c0.7-0.2,0.7,0.4,0,1.3c-0.5,0.6-0.9,1.3-1.4,2c-1.3,2-2.6,4.2-3.7,6.5c-0.6,1.3-1.5,2.3-2,2.2c-0.3,0-0.7,0-1-0.1
					c-0.4,0-1.1,0.9-1.5,2.1c-0.3,0.8-0.6,1.6-0.9,2.5c-0.4,1.2-0.4,2.3,0,2.5c0.3,0.1,0.5,0.3,0.8,0.4c0.5,0.2,1.2-0.7,1.6-2.1
					c0.3-0.9,0.6-1.9,1-2.8c0.5-1.3,1.4-2.3,2.1-2.3c0.5,0.1,1,0.1,1.5,0.2c0.8,0.1,2-1,2.7-2.4c0.5-1,0.9-1.9,1.4-2.8
					c1.3-2.5,2.8-4.8,4.2-6.8C23.4,13.6,23.2,12.9,22.3,13z"/>
				<path class="st0" d="M30.6,14.5c0.7-1.1,2.5-1.9,3.9-1.8c1,0.1,2.1,0.2,3.2,0.3c1.6,0.2,3.4-0.4,4-1.4c0.4-0.6,0.8-1.2,1.1-1.8
					c0.5-0.8-0.3-1.5-1.7-1.7c-1-0.1-2-0.2-2.9-0.3c-1.3-0.1-2.9,0.5-3.5,1.2c-0.5,0.5-0.9,1.1-1.4,1.7c-0.7,0.9-2.4,1.7-3.7,1.7
					c-0.9,0-1.7,0-2.6,0.1c-1.1,0.1-2.6,0.9-3.4,1.9c-0.5,0.7-1,1.5-1.6,2.3c-1.5,2.3-2.9,4.8-4.2,7.5c-0.7,1.5-0.4,2.8,0.7,3
					c0.8,0.2,1.6,0.3,2.5,0.5c1.3,0.3,1.8,1.9,1.2,3.7c-0.4,1.2-0.9,2.5-1.3,3.7c-0.6,1.8,0.1,3.7,1.6,4.3c1.1,0.4,2.2,0.8,3.3,1.2
					c1.7,0.6,3.6-0.5,4.3-2.5c0.4-1.4,0.9-2.8,1.4-4.2c0.7-2-0.2-3.9-2-4.4c-1.2-0.3-2.3-0.6-3.4-0.9c-1.5-0.4-2.1-2-1.4-3.7
					c0.5-1.1,1-2.2,1.5-3.2C27.7,19.3,29.1,16.8,30.6,14.5z"/>
			</g>
			<path class="st0" d="M28.6,20.8c-0.6,1.3-0.1,2.5,1.2,2.7c1,0.2,1.9,0.4,2.9,0.6c1.5,0.3,3.2-0.5,3.8-1.9
				c0.4-0.9,0.8-1.8,1.2-2.7c0.6-1.2-0.1-2.3-1.5-2.6c-1-0.2-1.9-0.3-2.8-0.4c-1.3-0.2-2.8,0.6-3.4,1.7C29.5,19.1,29,20,28.6,20.8z"
				/>
			<g>
				<path class="st0" d="M9.7,52.9c-0.1,0.6-0.2,1.3-0.3,1.9c-0.1,0.8-0.7,0.7-1.2-0.3c-0.4-0.6-0.7-1.3-1.1-1.9
					c-0.5-0.9-0.8-0.9-0.8-0.2c0,0.5,0,1,0,1.5c0,0.7,0.4,1.9,0.9,2.7c0.3,0.6,0.7,1.2,1,1.8c0.5,0.9,1,1.1,1,0.5c0-0.4,0-0.9,0-1.4
					c0-0.7,0.6-0.5,1.3,0.4c0.5,0.7,1,1.3,1.5,2c1.6,1.9,3.3,3.8,5.2,5.6c1,1,1.7,2.2,1.5,2.7c-0.1,0.3-0.3,0.6-0.4,0.9
					c-0.2,0.4,0.5,1.3,1.5,2.1c0.7,0.5,1.4,1.1,2.1,1.6c1,0.7,2.1,1.1,2.4,0.8c0.2-0.2,0.5-0.4,0.7-0.7c0.4-0.4-0.3-1.3-1.5-2.2
					c-0.8-0.6-1.6-1.2-2.4-1.8c-1.1-0.9-1.8-2.1-1.5-2.7c0.2-0.5,0.5-0.9,0.7-1.4c0.4-0.8-0.3-2.3-1.4-3.4c-0.8-0.7-1.6-1.5-2.3-2.3
					c-2-2.1-3.8-4.1-5.4-6.2C10.6,52,9.9,52,9.7,52.9z"/>
				<path class="st0" d="M14.1,45.3c-0.9-1-1.1-3-0.5-4.3c0.4-1,0.9-2,1.4-3c0.7-1.5,0.7-3.4-0.1-4.3c-0.5-0.6-1-1.1-1.5-1.6
					c-0.6-0.7-1.6-0.2-2.3,1.2c-0.4,0.9-0.8,1.8-1.2,2.7c-0.5,1.3-0.5,3,0,3.8c0.4,0.6,0.8,1.2,1.3,1.8c0.7,1,0.9,2.8,0.4,4.1
					c-0.3,0.9-0.6,1.7-0.8,2.5c-0.3,1.1,0,2.9,0.8,3.9c0.6,0.7,1.1,1.5,1.8,2.2c1.8,2.2,3.8,4.3,6.1,6.4c1.2,1.1,2.7,1.2,3.3,0.3
					c0.4-0.7,0.9-1.5,1.3-2.3c0.7-1.2,2.5-1.2,4.1,0c1.1,0.8,2.1,1.6,3.2,2.4c1.6,1.1,3.7,1,4.7-0.3c0.7-0.9,1.5-1.9,2.3-2.9
					c1.2-1.5,0.7-3.7-1-4.9c-1.2-0.9-2.4-1.7-3.6-2.6c-1.7-1.3-3.9-1-4.9,0.6c-0.7,1.1-1.3,2.1-2,3.1c-0.9,1.4-2.7,1.5-4.1,0.2
					c-0.9-0.8-1.8-1.6-2.7-2.4C17.8,49.6,15.8,47.4,14.1,45.3z"/>
			</g>
			<path class="st0" d="M19.6,49.2c1,1,2.4,0.9,3.1-0.3c0.5-0.9,1-1.8,1.6-2.7c0.8-1.3,0.5-3.2-0.6-4.2c-0.8-0.7-1.5-1.3-2.2-2
				c-1-0.9-2.4-0.6-3.1,0.7c-0.5,0.9-0.9,1.8-1.3,2.6c-0.6,1.2-0.3,2.9,0.6,3.9C18.3,47.8,18.9,48.5,19.6,49.2z"/>
			<g>
				<path class="st0" d="M44.4,77.2c0.6,0.3,1.1,0.6,1.6,0.8c0.7,0.3,0.4,0.9-0.7,1.1c-0.7,0.2-1.4,0.3-2.2,0.5
					c-1,0.2-1.2,0.5-0.5,0.8c0.5,0.2,1,0.3,1.4,0.4c0.6,0.2,1.9,0.1,2.8,0c0.7-0.1,1.4-0.3,2-0.5c1-0.3,1.4-0.6,0.8-0.8
					c-0.4-0.1-0.8-0.3-1.3-0.4c-0.7-0.2-0.3-0.7,0.9-1.1c0.8-0.3,1.6-0.6,2.4-0.9c2.3-0.9,4.7-2.1,7-3.4c1.2-0.7,2.5-1,2.9-0.6
					c0.2,0.2,0.5,0.5,0.7,0.7c0.3,0.3,1.4-0.1,2.4-0.8c0.7-0.5,1.4-1,2.1-1.6c1-0.8,1.7-1.7,1.5-2.1c-0.1-0.3-0.2-0.6-0.4-0.9
					c-0.2-0.5-1.3-0.2-2.4,0.7c-0.8,0.6-1.6,1.2-2.4,1.8c-1.2,0.8-2.5,1.1-3,0.6c-0.3-0.4-0.7-0.7-1.1-1.2c-0.6-0.6-2.2-0.5-3.6,0.4
					c-1,0.6-1.9,1.1-2.9,1.6c-2.6,1.3-5.2,2.5-7.6,3.4C43.9,76,43.6,76.8,44.4,77.2z"/>
				<path class="st0" d="M38.7,70.7c-1.3,0.5-3.2,0.2-4.3-0.8c-0.8-0.7-1.6-1.5-2.4-2.3c-1.2-1.2-3.1-1.7-4.2-1.2
					c-0.7,0.3-1.4,0.7-2.1,0.9c-0.9,0.4-0.8,1.6,0.3,2.6c0.7,0.7,1.5,1.4,2.3,2c1.1,0.9,2.7,1.4,3.7,1.1c0.7-0.2,1.5-0.4,2.2-0.7
					c1.2-0.4,3,0,4.1,0.8c0.7,0.5,1.4,1.1,2.1,1.5c1,0.7,2.7,0.8,4,0.4c0.9-0.3,1.8-0.7,2.7-1c2.6-1.1,5.3-2.4,8-4
					c1.4-0.8,2-2.2,1.3-3.1c-0.5-0.6-1.1-1.3-1.7-2c-0.9-1-0.3-2.8,1.2-3.9c1.1-0.8,2.1-1.6,3.2-2.4c1.5-1.2,2-3.2,1.2-4.6
					c-0.6-1-1.3-2-1.9-3c-1-1.5-3.2-1.8-4.9-0.6c-1.2,0.9-2.4,1.8-3.6,2.6c-1.7,1.2-2.2,3.4-1,4.9c0.8,1,1.5,1.9,2.3,2.8
					c1,1.2,0.5,3-1.1,4c-1.1,0.6-2.1,1.3-3.2,1.8C44.1,68.3,41.3,69.6,38.7,70.7z"/>
			</g>
			<path class="st0" d="M44.3,66.4c1.3-0.7,1.6-2.1,0.7-3.1c-0.7-0.7-1.3-1.5-2-2.3c-1-1.2-2.9-1.5-4.3-0.7
				c-0.9,0.5-1.8,1.1-2.7,1.6c-1.2,0.7-1.3,2.1-0.3,3.2c0.7,0.7,1.4,1.4,2.1,2.1c1,0.9,2.7,1.2,3.9,0.6
				C42.5,67.3,43.4,66.9,44.3,66.4z"/>
			<g>
				<path class="st0" d="M77.7,51.3c0.4-0.4,0.8-0.9,1.2-1.3c0.5-0.6,0.9-0.1,0.8,1c-0.1,0.7-0.1,1.5-0.2,2.2
					c-0.1,1,0.1,1.3,0.5,0.7c0.3-0.4,0.5-0.8,0.8-1.2c0.3-0.5,0.7-1.7,0.8-2.7c0.1-0.7,0.1-1.4,0.2-2.1c0.1-1-0.1-1.5-0.5-1
					c-0.2,0.3-0.5,0.7-0.7,1c-0.4,0.5-0.7,0-0.8-1.2c0-0.8-0.1-1.7-0.1-2.5c-0.2-2.5-0.5-5-1.1-7.5c-0.3-1.4-0.2-2.7,0.2-2.9
					c0.3-0.1,0.5-0.3,0.8-0.4c0.3-0.2,0.3-1.3-0.1-2.5c-0.3-0.8-0.5-1.6-0.8-2.5c-0.4-1.2-1.1-2.1-1.5-2c-0.3,0-0.6,0-0.9,0.1
					c-0.5,0-0.5,1.2,0,2.5c0.3,0.9,0.6,1.8,0.9,2.8c0.4,1.4,0.3,2.7-0.3,3c-0.4,0.2-0.9,0.4-1.3,0.6c-0.7,0.3-1,1.9-0.7,3.5
					c0.2,1.1,0.4,2.1,0.6,3.2c0.5,2.8,0.7,5.6,0.8,8.2C76.5,51.4,77.1,52,77.7,51.3z"/>
				<path class="st0" d="M70.2,54.7c0.1,1.4-0.8,3.1-2.1,3.9c-0.9,0.5-1.8,1.1-2.8,1.6c-1.4,0.8-2.5,2.4-2.4,3.6
					c0.1,0.8,0.1,1.6,0.2,2.3c0.1,1,1.2,1.2,2.5,0.5c0.9-0.5,1.7-1,2.5-1.5c1.1-0.7,2.1-2.2,2.1-3.2c0-0.7,0.1-1.5,0.1-2.3
					c0-1.2,0.9-2.9,1.9-3.6c0.7-0.5,1.4-1,2-1.5c0.9-0.7,1.5-2.3,1.5-3.6c0-0.9-0.1-1.9-0.2-2.8c-0.2-2.8-0.7-5.7-1.3-8.7
					c-0.3-1.6-1.4-2.6-2.4-2.2c-0.7,0.3-1.5,0.6-2.3,0.9c-1.2,0.5-2.6-0.6-3.2-2.4c-0.4-1.2-0.8-2.5-1.2-3.7
					c-0.6-1.8-2.4-2.9-3.8-2.6c-1.1,0.3-2.2,0.5-3.4,0.9c-1.7,0.5-2.6,2.4-1.9,4.4c0.5,1.4,0.9,2.8,1.4,4.2c0.6,2,2.5,3.1,4.2,2.5
					c1.1-0.4,2.2-0.8,3.3-1.2c1.4-0.5,2.9,0.5,3.3,2.3c0.3,1.2,0.5,2.4,0.7,3.5C69.6,48.9,70,51.9,70.2,54.7z"/>
			</g>
			<path class="st0" d="M68,48.1c-0.3-1.4-1.4-2.2-2.6-1.6c-0.9,0.4-1.8,0.8-2.7,1.2c-1.4,0.6-2.2,2.3-1.9,3.8c0.2,1,0.4,2,0.6,3
				c0.3,1.4,1.5,1.9,2.8,1.3c0.9-0.4,1.7-0.9,2.5-1.3c1.1-0.6,1.9-2.2,1.7-3.5C68.3,50,68.1,49.1,68,48.1z"/>
		</g>
	</g>
</g>
</svg>
