<svg version="1.1" id="レイヤー_1" xmlns="http://www.w3.org/2000/svg" x="0" y="0" viewBox="0 0 343 85" xml:space="preserve"><style>.st0{fill:#ee7800}</style><path d="M106.5 60.2V39.5c0-1.6 0-3.1.2-4.7.4-3.6 1.8-6.2 5.7-6.8 3.4-.5 6.3 1 7.5 4.2.5 1.3.8 2.8.8 4.3.1 7.6.1 15.2.1 22.8v.9h7.2v-1.1c0-8 0-16.1.1-24.1.1-3.8 2.4-6.3 6.1-6.9 3.5-.6 6.4 1.2 7.4 4.5.3 1 .5 2 .5 3 .1 4 .1 8.1.1 12.1v12.5h7.1V33.9c0-2.1-.5-4.1-1.6-6-3.2-5.4-9.7-7.9-16.1-6.1-2.9.8-5.3 2.3-7.2 4.8-.3-.3-.5-.6-.7-.8-1.3-1-2.4-2.3-3.9-3-4.1-2.2-8.5-2-12.6-.1-4.8 2.2-7.6 6.1-7.5 11.6v25.9h6.8zm99-6.6c.1-.2.1-.2.2-.3 5.7-6.9 11.3-13.8 17-20.8.8-1 1.5-2.1 1.9-3.3 1.1-3.4-.6-6.1-4.1-6.9-.8-.2-1.6-.3-2.4-.3h-18.5c-.5 0-.7.2-.7.7v5.5c0 .2.1.4.1.5h11.4v-5.9c2.2 2 4.4 3.9 6.5 5.9-.2.2-.3.4-.5.7-5.6 6.9-11.3 13.8-16.9 20.7-1.3 1.6-1.9 3.5-2 5.5-.2 2.5 2.1 4.6 4.8 4.6h22.1c.2 0 .4 0 .6-.1v-6.6h-12.9v5.9c-2.3-2-4.4-3.9-6.6-5.8zM294.9 22h-2.8c-4.1.1-8.1 0-12.2.3-3.9.3-7.3 2.2-10.1 5.1-4.8 5.1-6.3 11.2-4.8 18 1.5 7 7.7 14.8 18 14.7h11.9v-6.7h-10.3c-7.9 0-12.6-6.8-12.4-12.4.2-6.8 5.5-12.3 12.3-12.3H295c-.1-2.2-.1-4.4-.1-6.7zm-64.7.1v38.1h7V40.5c0-2.2.3-4.3 1.2-6.3 1.4-3.4 3.8-5.7 7.5-6.1 1-.1 2 0 3 0v-6.8c-2.2-.1-4.3 0-6.4.7-2.3.8-4.1 2.3-5.6 4.4v-4.3h-6.7zm29.8 0h-6.1c-.8 0-1 .2-.9.9v37.2h7.1c-.1-12.8-.1-25.4-.1-38.1zm-3.4-12.8c-2.4 0-4.3 1.8-4.3 4.1 0 2.4 1.9 4.4 4.4 4.4 2.4 0 4-1.7 4-4.2s-1.7-4.3-4.1-4.3z"/><path d="M106.5 60.2h-7V34.3c0-5.5 2.7-9.4 7.5-11.6 4.1-1.9 8.5-2.1 12.6.1 1.4.8 2.6 2 3.9 3 .3.2.5.5.7.8 1.9-2.5 4.3-4 7.2-4.8 6.4-1.7 12.9.7 16.1 6.1 1.1 1.8 1.6 3.8 1.6 6v26.3H142V47.7c0-4 0-8.1-.1-12.1 0-1-.2-2.1-.5-3-1-3.4-4-5.1-7.4-4.5-3.7.6-6 3.1-6.1 6.9-.1 8-.1 16.1-.1 24.1v1.1h-7.2v-.9c0-7.6 0-15.2-.1-22.8 0-1.4-.3-2.9-.8-4.3-1.2-3.2-4.1-4.7-7.5-4.2-3.8.6-5.3 3.2-5.7 6.8-.2 1.6-.2 3.1-.2 4.7v19.8c.2.3.2.6.2.9zm99-6.6c2.2 1.9 4.3 3.9 6.5 5.9v-5.9h12.9v6.6c-.2 0-.4.1-.6.1h-22.1c-2.7 0-5-2.2-4.8-4.6.1-2 .7-3.9 2-5.5 5.6-6.9 11.3-13.8 16.9-20.7.2-.2.3-.4.5-.7-2.1-1.9-4.3-3.8-6.5-5.9v5.9h-11.4c0-.2-.1-.3-.1-.5v-5.5c0-.5.2-.7.7-.7H218c.8 0 1.6.1 2.4.3 3.5.7 5.2 3.5 4.1 6.9-.4 1.2-1.1 2.3-1.9 3.3-5.6 7-11.3 13.9-17 20.8 0-.1 0 0-.1.2zM294.9 22v6.8h-10.5c-6.8 0-12.1 5.5-12.3 12.3-.2 5.6 4.5 12.4 12.4 12.4h10.3v6.7h-11.9c-10.3 0-16.5-7.7-18-14.7-1.4-6.7.1-12.9 4.8-18 2.7-2.9 6.1-4.8 10.1-5.1 4-.4 8.1-.3 12.2-.3 1-.1 1.9-.1 2.9-.1zm-64.7.1h6.6v4.3c1.5-2.2 3.3-3.6 5.6-4.4 2.1-.7 4.2-.8 6.4-.7v6.8c-1 0-2-.1-3 0-3.8.4-6.1 2.7-7.5 6.1-.9 2-1.2 4.1-1.2 6.3v19.7h-7c.1-12.7.1-25.4.1-38.1zm29.8 0v38.1h-7.1V23c0-.7.2-1 .9-.9 1.8.1 3.5 0 5.3 0h.9zm-3.4-12.8c2.4 0 4.1 1.8 4.2 4.2 0 2.5-1.6 4.2-4 4.2s-4.4-1.9-4.4-4.4c-.1-2.2 1.8-4 4.2-4zm-63.4 35.2c0-2.5.1-4.9-.1-7.4-.5-6.6-3.9-11.2-9.8-14-4.5-2.1-9.4-2.3-14.2-1.4-6.2 1.2-10.7 4.6-13.3 10.4-1.8 3.9-2.1 8-1.4 12.2 1.2 7.7 5.5 13 12.8 15.8 1.3.5 2.7.6 4.1.9h4.4c.1 0 .2-.1.4-.1 3.6-.4 6.8-1.8 9.5-4.1.1-.1.3-.2.6-.3v3.7h7.2v-1c-.2-4.9-.2-9.8-.2-14.7zm-12.7 7.2c-5.6 4.6-14.1 2.9-17.8-3.8-2.2-4.1-2.3-8.4-.7-12.7 1.4-3.7 4.4-5.9 8.1-6.8 3.3-.8 6.7-.5 9.8.9 3.8 1.8 5.9 4.8 5.9 9v1.3c.4 5-1.5 9-5.3 12.1zm156.1-16c-1.1-6.3-4.7-10.5-10.4-12.9-4.3-1.8-8.9-1.9-13.5-1.1-5.9 1.1-10.3 4.2-13 9.6-2.3 4.6-2.7 9.5-1.6 14.4 1.7 7.5 6.3 12.5 13.8 14.8.9.3 2 .4 2.9.6h4.4c1.3-.3 2.7-.5 4-.9 2.1-.6 4-1.8 5.8-3.2.2-.1.3-.3.6-.5v3.8h7.2V36.1c-.1-.2-.2-.3-.2-.4zm-12.5 16.1c-5.9 4.8-14.7 2.7-18.1-4.5-1.8-3.8-1.9-7.7-.5-11.6 1.5-4.3 4.9-6.6 9.2-7.4 2.9-.5 5.8-.2 8.6 1 4 1.6 6.2 5 6.2 9.3v1.1c.4 4.9-1.6 8.9-5.4 12.1z"/><path class="st0" d="M63.6 12.3c-.3-.5-.6-1.1-.9-1.5-.4-.7.1-.9 1.1-.4.7.3 1.3.6 1.9.9.9.4 1.2.3.8-.3-.3-.4-.6-.8-.9-1.1-.4-.5-1.4-1.2-2.3-1.6-.6-.3-1.2-.6-1.9-.8-.9-.4-1.4-.3-1.1.1.3.3.5.7.8 1 .4.5-.2.7-1.3.3-.8-.2-1.6-.5-2.4-.7-2.3-.6-4.8-1.1-7.3-1.4-1.4-.2-2.6-.7-2.7-1.2-.1-.3-.1-.6-.2-.9.1-.3-1-.7-2.2-.7h-2.6c-1.2 0-2.3.4-2.4.7 0 .3-.1.6-.1.9-.1.5 1 .8 2.4.8h2.9c1.4 0 2.6.6 2.7 1.2.1.4.2.9.3 1.4.1.8 1.5 1.6 3.1 1.7 1.1.1 2.1.3 3.1.5 2.8.5 5.4 1.1 7.8 1.9 1.2.4 1.8 0 1.4-.8zm1.1 8.1c1.3.4 2.6 1.7 3 3.1.2 1 .5 2 .7 3.1.3 1.6 1.5 3.1 2.6 3.3.7.2 1.5.4 2.1.5.9.2 1.4-.7 1.1-2.1-.2-1-.4-1.9-.7-2.8-.4-1.3-1.4-2.6-2.3-3-.7-.3-1.4-.5-2.1-.8-1.1-.4-2.4-1.7-2.8-2.9-.3-.8-.6-1.6-.8-2.3-.4-1-1.7-2.2-2.9-2.5-.9-.3-1.8-.5-2.7-.8-2.7-.7-5.5-1.2-8.5-1.6-1.6-.2-2.8.5-2.7 1.5l.3 2.4c.1 1.3-1.3 2.3-3.2 2.2h-3.9c-1.9 0-3.5 1.3-3.6 2.8-.1 1.1-.1 2.2-.2 3.4-.1 1.8 1.5 3.2 3.6 3.2h4.4c2.1 0 3.7-1.4 3.6-3.1-.1-1.2-.1-2.3-.2-3.4-.1-1.5 1.3-2.6 3.1-2.4 1.2.1 2.4.3 3.5.4 3.1.5 5.9 1.1 8.6 1.8z"/><path class="st0" d="M58 20.3c-1.4-.2-2.4.6-2.3 1.9.1.9.2 1.9.3 2.9.2 1.5 1.5 2.8 3 3 1 .1 2 .2 3 .4 1.3.2 2.2-.8 2-2.2-.2-.9-.3-1.9-.5-2.8-.3-1.2-1.5-2.4-2.7-2.7-.9-.2-1.9-.3-2.8-.5zM22.3 13l-1.8.3c-.8.2-.8-.4-.1-1.2.5-.5 1-1.1 1.4-1.5.7-.7.6-1-.1-.8-.5.2-.9.3-1.4.5-.6.2-1.6 1-2.2 1.6-.5.5-.9 1-1.4 1.5-.7.8-.8 1.2-.2 1 .4-.2.8-.3 1.3-.4.7-.2.7.4 0 1.3-.5.6-.9 1.3-1.4 2-1.3 2-2.6 4.2-3.7 6.5-.6 1.3-1.5 2.3-2 2.2-.3 0-.7 0-1-.1-.4 0-1.1.9-1.5 2.1-.3.8-.6 1.6-.9 2.5-.4 1.2-.4 2.3 0 2.5.3.1.5.3.8.4.5.2 1.2-.7 1.6-2.1.3-.9.6-1.9 1-2.8.5-1.3 1.4-2.3 2.1-2.3.5.1 1 .1 1.5.2.8.1 2-1 2.7-2.4.5-1 .9-1.9 1.4-2.8 1.3-2.5 2.8-4.8 4.2-6.8.8-.8.6-1.5-.3-1.4zm8.3 1.5c.7-1.1 2.5-1.9 3.9-1.8 1 .1 2.1.2 3.2.3 1.6.2 3.4-.4 4-1.4.4-.6.8-1.2 1.1-1.8.5-.8-.3-1.5-1.7-1.7-1-.1-2-.2-2.9-.3-1.3-.1-2.9.5-3.5 1.2-.5.5-.9 1.1-1.4 1.7-.7.9-2.4 1.7-3.7 1.7-.9 0-1.7 0-2.6.1-1.1.1-2.6.9-3.4 1.9-.5.7-1 1.5-1.6 2.3-1.5 2.3-2.9 4.8-4.2 7.5-.7 1.5-.4 2.8.7 3 .8.2 1.6.3 2.5.5 1.3.3 1.8 1.9 1.2 3.7-.4 1.2-.9 2.5-1.3 3.7-.6 1.8.1 3.7 1.6 4.3l3.3 1.2c1.7.6 3.6-.5 4.3-2.5.4-1.4.9-2.8 1.4-4.2.7-2-.2-3.9-2-4.4-1.2-.3-2.3-.6-3.4-.9-1.5-.4-2.1-2-1.4-3.7.5-1.1 1-2.2 1.5-3.2 1.5-2.4 2.9-4.9 4.4-7.2z"/><path class="st0" d="M28.6 20.8c-.6 1.3-.1 2.5 1.2 2.7 1 .2 1.9.4 2.9.6 1.5.3 3.2-.5 3.8-1.9l1.2-2.7c.6-1.2-.1-2.3-1.5-2.6-1-.2-1.9-.3-2.8-.4-1.3-.2-2.8.6-3.4 1.7-.5.9-1 1.8-1.4 2.6zM9.7 52.9c-.1.6-.2 1.3-.3 1.9-.1.8-.7.7-1.2-.3-.4-.6-.7-1.3-1.1-1.9-.5-.9-.8-.9-.8-.2v1.5c0 .7.4 1.9.9 2.7.3.6.7 1.2 1 1.8.5.9 1 1.1 1 .5v-1.4c0-.7.6-.5 1.3.4.5.7 1 1.3 1.5 2 1.6 1.9 3.3 3.8 5.2 5.6 1 1 1.7 2.2 1.5 2.7-.1.3-.3.6-.4.9-.2.4.5 1.3 1.5 2.1.7.5 1.4 1.1 2.1 1.6 1 .7 2.1 1.1 2.4.8.2-.2.5-.4.7-.7.4-.4-.3-1.3-1.5-2.2l-2.4-1.8c-1.1-.9-1.8-2.1-1.5-2.7.2-.5.5-.9.7-1.4.4-.8-.3-2.3-1.4-3.4-.8-.7-1.6-1.5-2.3-2.3-2-2.1-3.8-4.1-5.4-6.2-.6-.9-1.3-.9-1.5 0zm4.4-7.6c-.9-1-1.1-3-.5-4.3.4-1 .9-2 1.4-3 .7-1.5.7-3.4-.1-4.3-.5-.6-1-1.1-1.5-1.6-.6-.7-1.6-.2-2.3 1.2L9.9 36c-.5 1.3-.5 3 0 3.8.4.6.8 1.2 1.3 1.8.7 1 .9 2.8.4 4.1-.3.9-.6 1.7-.8 2.5-.3 1.1 0 2.9.8 3.9.6.7 1.1 1.5 1.8 2.2 1.8 2.2 3.8 4.3 6.1 6.4 1.2 1.1 2.7 1.2 3.3.3.4-.7.9-1.5 1.3-2.3.7-1.2 2.5-1.2 4.1 0 1.1.8 2.1 1.6 3.2 2.4 1.6 1.1 3.7 1 4.7-.3.7-.9 1.5-1.9 2.3-2.9 1.2-1.5.7-3.7-1-4.9-1.2-.9-2.4-1.7-3.6-2.6-1.7-1.3-3.9-1-4.9.6-.7 1.1-1.3 2.1-2 3.1-.9 1.4-2.7 1.5-4.1.2l-2.7-2.4c-2.3-2.3-4.3-4.5-6-6.6z"/><path class="st0" d="M19.6 49.2c1 1 2.4.9 3.1-.3.5-.9 1-1.8 1.6-2.7.8-1.3.5-3.2-.6-4.2-.8-.7-1.5-1.3-2.2-2-1-.9-2.4-.6-3.1.7-.5.9-.9 1.8-1.3 2.6-.6 1.2-.3 2.9.6 3.9.6.6 1.2 1.3 1.9 2zm24.8 28c.6.3 1.1.6 1.6.8.7.3.4.9-.7 1.1-.7.2-1.4.3-2.2.5-1 .2-1.2.5-.5.8.5.2 1 .3 1.4.4.6.2 1.9.1 2.8 0 .7-.1 1.4-.3 2-.5 1-.3 1.4-.6.8-.8-.4-.1-.8-.3-1.3-.4-.7-.2-.3-.7.9-1.1l2.4-.9c2.3-.9 4.7-2.1 7-3.4 1.2-.7 2.5-1 2.9-.6l.7.7c.3.3 1.4-.1 2.4-.8.7-.5 1.4-1 2.1-1.6 1-.8 1.7-1.7 1.5-2.1-.1-.3-.2-.6-.4-.9-.2-.5-1.3-.2-2.4.7L63 70.9c-1.2.8-2.5 1.1-3 .6-.3-.4-.7-.7-1.1-1.2-.6-.6-2.2-.5-3.6.4-1 .6-1.9 1.1-2.9 1.6-2.6 1.3-5.2 2.5-7.6 3.4-.9.3-1.2 1.1-.4 1.5zm-5.7-6.5c-1.3.5-3.2.2-4.3-.8-.8-.7-1.6-1.5-2.4-2.3-1.2-1.2-3.1-1.7-4.2-1.2-.7.3-1.4.7-2.1.9-.9.4-.8 1.6.3 2.6.7.7 1.5 1.4 2.3 2 1.1.9 2.7 1.4 3.7 1.1.7-.2 1.5-.4 2.2-.7 1.2-.4 3 0 4.1.8.7.5 1.4 1.1 2.1 1.5 1 .7 2.7.8 4 .4.9-.3 1.8-.7 2.7-1 2.6-1.1 5.3-2.4 8-4 1.4-.8 2-2.2 1.3-3.1-.5-.6-1.1-1.3-1.7-2-.9-1-.3-2.8 1.2-3.9 1.1-.8 2.1-1.6 3.2-2.4 1.5-1.2 2-3.2 1.2-4.6-.6-1-1.3-2-1.9-3-1-1.5-3.2-1.8-4.9-.6-1.2.9-2.4 1.8-3.6 2.6-1.7 1.2-2.2 3.4-1 4.9.8 1 1.5 1.9 2.3 2.8 1 1.2.5 3-1.1 4-1.1.6-2.1 1.3-3.2 1.8-2.8 1.8-5.6 3.1-8.2 4.2z"/><path class="st0" d="M44.3 66.4c1.3-.7 1.6-2.1.7-3.1-.7-.7-1.3-1.5-2-2.3-1-1.2-2.9-1.5-4.3-.7-.9.5-1.8 1.1-2.7 1.6-1.2.7-1.3 2.1-.3 3.2l2.1 2.1c1 .9 2.7 1.2 3.9.6.8-.5 1.7-.9 2.6-1.4zm33.4-15.1c.4-.4.8-.9 1.2-1.3.5-.6.9-.1.8 1-.1.7-.1 1.5-.2 2.2-.1 1 .1 1.3.5.7.3-.4.5-.8.8-1.2.3-.5.7-1.7.8-2.7.1-.7.1-1.4.2-2.1.1-1-.1-1.5-.5-1-.2.3-.5.7-.7 1-.4.5-.7 0-.8-1.2 0-.8-.1-1.7-.1-2.5-.2-2.5-.5-5-1.1-7.5-.3-1.4-.2-2.7.2-2.9.3-.1.5-.3.8-.4.3-.2.3-1.3-.1-2.5-.3-.8-.5-1.6-.8-2.5-.4-1.2-1.1-2.1-1.5-2-.3 0-.6 0-.9.1-.5 0-.5 1.2 0 2.5.3.9.6 1.8.9 2.8.4 1.4.3 2.7-.3 3-.4.2-.9.4-1.3.6-.7.3-1 1.9-.7 3.5.2 1.1.4 2.1.6 3.2.5 2.8.7 5.6.8 8.2.2 1.1.8 1.7 1.4 1zm-7.5 3.4c.1 1.4-.8 3.1-2.1 3.9-.9.5-1.8 1.1-2.8 1.6-1.4.8-2.5 2.4-2.4 3.6.1.8.1 1.6.2 2.3.1 1 1.2 1.2 2.5.5.9-.5 1.7-1 2.5-1.5 1.1-.7 2.1-2.2 2.1-3.2 0-.7.1-1.5.1-2.3 0-1.2.9-2.9 1.9-3.6.7-.5 1.4-1 2-1.5.9-.7 1.5-2.3 1.5-3.6 0-.9-.1-1.9-.2-2.8-.2-2.8-.7-5.7-1.3-8.7-.3-1.6-1.4-2.6-2.4-2.2-.7.3-1.5.6-2.3.9-1.2.5-2.6-.6-3.2-2.4-.4-1.2-.8-2.5-1.2-3.7-.6-1.8-2.4-2.9-3.8-2.6-1.1.3-2.2.5-3.4.9-1.7.5-2.6 2.4-1.9 4.4.5 1.4.9 2.8 1.4 4.2.6 2 2.5 3.1 4.2 2.5l3.3-1.2c1.4-.5 2.9.5 3.3 2.3.3 1.2.5 2.4.7 3.5.7 2.9 1.1 5.9 1.3 8.7z"/><path class="st0" d="M68 48.1c-.3-1.4-1.4-2.2-2.6-1.6l-2.7 1.2c-1.4.6-2.2 2.3-1.9 3.8l.6 3c.3 1.4 1.5 1.9 2.8 1.3.9-.4 1.7-.9 2.5-1.3 1.1-.6 1.9-2.2 1.7-3.5-.1-1-.3-1.9-.4-2.9z"/></svg>