<svg xmlns="http://www.w3.org/2000/svg" viewBox="0 0 347.96 314.54"><defs><style>.cls-1{fill:#e92423}</style></defs><g id="レイヤー_2" data-name="レイヤー 2"><g id="アウトラインデータ"><path class="cls-1" d="M185.8 31.49c2.38 0 2.37 1.91 2.37 1.91v19.07a11 11 0 0 0 11 11 11 11 0 0 0 11-11V33.4a1.71 1.71 0 0 1 1.75-1.75h24.65a2.56 2.56 0 0 1 2.53 2.22v15.74a11 11 0 0 0 11 11 11 11 0 0 0 11-11V22.26a11 11 0 0 0-11-11h-64.73c-1.16 0-1.31-.69-1.4-1.28a11.85 11.85 0 0 0-23.42 0c-.16 1-.31 1.28-1.67 1.28H94.42a11 11 0 0 0-11 11v27.35a11 11 0 0 0 11 11 11 11 0 0 0 11-11V33.87a2.56 2.56 0 0 1 2.53-2.22h24.65a1.71 1.71 0 0 1 1.75 1.75v19.07a11 11 0 0 0 11 11 11 11 0 0 0 11-11V33.4s0-1.91 2.37-1.91zm54.25 43.33a11 11 0 0 1 9.9-6.21 11 11 0 0 1 11 11v45.33a11 11 0 0 1-11 11h-31.12a7.43 7.43 0 0 1-7.44-7.43 7.44 7.44 0 0 1 7.44-7.43h18.89a1.24 1.24 0 0 0 1.24-1.24v-5.5a1.24 1.24 0 0 0-1.24-1.24h-18.89a7.44 7.44 0 0 1-7.44-7.43 7.43 7.43 0 0 1 7.44-7.43h18.89a1.23 1.23 0 0 0 1.28-1.3v-5.49a1.23 1.23 0 0 0-1.24-1.24h-18.93a7.44 7.44 0 0 1-7.44-7.43 7.43 7.43 0 0 1 7.44-7.43H239a1.36 1.36 0 0 0 1.05-.53zm-135.63 0a11 11 0 0 0-9.89-6.21 11 11 0 0 0-11 11v45.33a11 11 0 0 0 11 11h31.12a7.42 7.42 0 0 0 7.43-7.43 7.43 7.43 0 0 0-7.43-7.43h-18.89a1.24 1.24 0 0 1-1.24-1.24v-5.5a1.24 1.24 0 0 1 1.24-1.24h18.89a7.43 7.43 0 0 0 7.43-7.43 7.42 7.42 0 0 0-7.43-7.43h-18.89a1.23 1.23 0 0 1-1.24-1.24v-5.55a1.23 1.23 0 0 1 1.24-1.24h18.89a7.43 7.43 0 0 0 7.43-7.43 7.42 7.42 0 0 0-7.43-7.43h-20.16a1.37 1.37 0 0 1-1.07-.53zm89.99 16.72l-4.52-1.92s-.42-.14-.42-.48a.55.55 0 0 1 .42-.52l4.52-1.92a6.45 6.45 0 1 0-5-11.87l-15.87 6.75a4.83 4.83 0 0 1-1.28.26 3.93 3.93 0 0 1-1.24-.26l-15.89-6.75A6.45 6.45 0 1 0 150 86.7l4.53 1.92a.57.57 0 0 1 .41.5.55.55 0 0 1-.41.5L150 91.54a6.45 6.45 0 1 0 5.05 11.87l15.31-6.5a4.65 4.65 0 0 1 1.81-.46 6.19 6.19 0 0 1 1.86.46l15.3 6.5a6.45 6.45 0 1 0 5-11.87zm0 34.13l-4.52-1.92s-.42-.15-.42-.48a.57.57 0 0 1 .42-.53l4.52-1.92a6.45 6.45 0 1 0-5-11.87l-15.87 6.75a4.83 4.83 0 0 1-1.28.26 4.06 4.06 0 0 1-1.24-.25L155.08 109a6.45 6.45 0 1 0-5.08 11.82l4.53 1.93a.5.5 0 0 1 0 1l-4.53 1.92a6.45 6.45 0 1 0 5.05 11.87l15.34-6.54a4.73 4.73 0 0 1 1.81-.45 6.19 6.19 0 0 1 1.86.46l15.3 6.5a6.45 6.45 0 1 0 5-11.87zm-91.47 29.47a2.05 2.05 0 0 0-2.08 2.05v31.16a8.64 8.64 0 0 1-8.65 8.65 8.64 8.64 0 0 1-8.64-8.64v-38.43a8.64 8.64 0 0 1 8.64-8.64h160.11a8.63 8.63 0 0 1 8.64 8.64v38.42a8.64 8.64 0 0 1-8.64 8.64 8.64 8.64 0 0 1-8.64-8.64v-31.16a2.05 2.05 0 0 0-2.08-2.05z"/><path class="cls-1" d="M191.8 168.26a1.48 1.48 0 0 1 1.48 1.48v2.84a1.47 1.47 0 0 1-1.48 1.47h-40.13a1.47 1.47 0 0 1-1.48-1.47v-2.84a1.48 1.48 0 0 1 1.48-1.48h40.13zm-6.25 35a2.05 2.05 0 0 1 2-2h39.53a7.14 7.14 0 0 0 7.14-7.14v-23.79a7.15 7.15 0 0 0-14.29 0v16.09a1.52 1.52 0 0 1-1.51 1.47h-31a2.19 2.19 0 0 1-2.18-2.18V185a2.18 2.18 0 0 1 2.18-2.18h15.55a7.74 7.74 0 0 0 7.82-7.66v-7.7a7.74 7.74 0 0 0-7.79-7.66h-62.54a7.74 7.74 0 0 0-7.82 7.66v7.7a7.74 7.74 0 0 0 7.82 7.66h21.28a2.18 2.18 0 0 1 2.19 2.18v.74a2.19 2.19 0 0 1-2.19 2.18H125a1.52 1.52 0 0 1-1.51-1.47v-16.12a7.15 7.15 0 0 0-14.3 0v23.75a7.15 7.15 0 0 0 7.15 7.14h45.38a2.05 2.05 0 0 1 2.06 2v.7a2.05 2.05 0 0 1-2.06 2h-9.84a7 7 0 0 0-7 7 7 7 0 0 0 7 7h26.61a7 7 0 0 0 7-7zm98.16-22.02s7.81-8.42 10.23-10.72a73.17 73.17 0 0 1 6.17-5.39 2.25 2.25 0 0 1 2.73 0c1.57 1.45 6.87 7.1 8.9 12 3.51 8.48 3.75 14.59 3.75 15.38s-2.6 1.57-2.6 1.57 1.17-2.48-1.94-12.77c-2.12-7-8.11-13.08-8.59-13.56a1.22 1.22 0 0 0-1.76-.19 60.74 60.74 0 0 0-7.15 6.48c-2.66 2.85-7.56 8.24-7.56 8.24zM276.09 194s-.12.35.2.27a12.18 12.18 0 0 0 6.74-5.12c.51-.81 1.06-.32.8.36-.53 1.38-2.67 4.45-7.78 6.44a.63.63 0 0 0-.35.39c-.33 1.17.39-2.34.39-2.34zm-101.96 40.62a1.87 1.87 0 1 1-1.87-1.87 1.87 1.87 0 0 1 1.87 1.87zm-35.81 23.1a1.87 1.87 0 1 1-2.35 1.2 1.87 1.87 0 0 1 2.35-1.2zm11.19 40.95a1.87 1.87 0 1 1 .42 2.61 1.86 1.86 0 0 1-.42-2.61zm42.21 2.14a1.87 1.87 0 1 1 2.61.42 1.87 1.87 0 0 1-2.61-.42zM207 261.33a1.87 1.87 0 1 1 1.2-2.36 1.87 1.87 0 0 1-1.2 2.36zm-12.41-3.84a1.87 1.87 0 1 1 1.2-2.35 1.88 1.88 0 0 1-1.2 2.35zm-6.32-6.49a1.87 1.87 0 1 1-1.15-3.55 1.87 1.87 0 0 1 1.15 3.55zm-8.2-3.89a1.87 1.87 0 1 1 1.2-2.36 1.87 1.87 0 0 1-1.2 2.36z"/><path class="cls-1" d="M203.13 260.53c-.17-.51-.86-.59-.86-.59a2 2 0 0 0-.73.08L177 267.9a.79.79 0 0 1-.65-.1l-2.75-2a.81.81 0 0 1-.31-.59l-.09-25.83a2.09 2.09 0 0 0-.15-.71s-.29-.64-.83-.64-.82.64-.82.64a2.09 2.09 0 0 0-.15.71l-.1 25.92a.85.85 0 0 1-.3.59L168 268a.85.85 0 0 1-.66.1l-24.76-7.94a2 2 0 0 0-.72-.08s-.69.08-.86.59.35 1 .35 1a1.88 1.88 0 0 0 .63.36l24.73 8.14.37.12a1.28 1.28 0 0 1 .17.36l1.05 3.25a.82.82 0 0 1-.1.65l-15.07 20.9a2.37 2.37 0 0 0-.3.67 1 1 0 0 0 .3 1 1.06 1.06 0 0 0 1 0 2.24 2.24 0 0 0 .54-.48l15.21-20.78a.83.83 0 0 1 .6-.3H174a.81.81 0 0 1 .59.3l15.1 20.63a2.24 2.24 0 0 0 .54.48 1.06 1.06 0 0 0 1 0c.44-.31.3-1 .3-1a2 2 0 0 0-.3-.66l-15-20.76a.85.85 0 0 1-.1-.66l1.13-3.47a.78.78 0 0 1 .47-.47l24.33-8a1.94 1.94 0 0 0 .62-.36s.61-.59.45-1.06zm-31.19 6.79a.54.54 0 0 1 .6 0l2.78 2a.55.55 0 0 1 .19.57l-1.06 3.26a.56.56 0 0 1-.49.36h-3.43a.54.54 0 0 1-.49-.36l-1.04-3.24a.56.56 0 0 1 .18-.57z"/><path class="cls-1" d="M176 260.37a.7.7 0 0 1-.85.47.69.69 0 0 1-.47-.86l2.2-7.4a.63.63 0 0 1 .77-.43.64.64 0 0 1 .43.78zm3.23 1.86a.69.69 0 0 1-1 .17.69.69 0 0 1-.16-1l4.48-6.29a.63.63 0 0 1 .87-.15.62.62 0 0 1 .15.87zm2.42 2.77a.68.68 0 0 1-1-.18.69.69 0 0 1 .18-.95l6.41-4.31a.63.63 0 0 1 .87.16.63.63 0 0 1-.16.87zm-15.16-19.71a1.87 1.87 0 1 1-1.87-1.87 1.86 1.86 0 0 1 1.87 1.87zm-8.08 4.01a1.87 1.87 0 1 1-1.87-1.86 1.87 1.87 0 0 1 1.87 1.86zm-6.28 6.59a1.87 1.87 0 1 1-1.87-1.87 1.87 1.87 0 0 1 1.87 1.87zm11.34 8.01a.68.68 0 0 1 .19 1 .69.69 0 0 1-1 .19l-6.36-4.39a.62.62 0 0 1-.17-.86.63.63 0 0 1 .87-.17zm2.79-2.54a.7.7 0 0 1-.14 1 .69.69 0 0 1-1-.13l-4.6-6.21a.63.63 0 0 1 .12-.88.63.63 0 0 1 .88.12zm3.42-1.43a.71.71 0 0 1-.47.86.69.69 0 0 1-.85-.47l-2.12-7.43a.63.63 0 0 1 .42-.78.64.64 0 0 1 .78.43zm-23.24 8.32a1.87 1.87 0 1 1-2.36 1.2 1.87 1.87 0 0 1 2.36-1.2zm1.32 8.93a1.87 1.87 0 1 1-2.36 1.2 1.87 1.87 0 0 1 2.36-1.2zm4.32 8.01a1.87 1.87 0 1 1-2.36 1.2 1.87 1.87 0 0 1 2.36-1.2zm11.12-8.31a.68.68 0 0 1 1 .12.68.68 0 0 1-.12 1l-6.13 4.7a.63.63 0 0 1-.88-.11.63.63 0 0 1 .11-.88zm-1.56-3.44a.7.7 0 0 1 .88.43.69.69 0 0 1-.43.87l-7.32 2.46a.63.63 0 0 1-.8-.39.63.63 0 0 1 .39-.8zm-.3-3.69a.69.69 0 0 1 .67.71.68.68 0 0 1-.71.66l-7.71-.28a.63.63 0 0 1-.61-.64.63.63 0 0 1 .64-.61zm.55 24.75a1.87 1.87 0 1 1 .42 2.61 1.87 1.87 0 0 1-.42-2.61zm8.9 1.5a1.87 1.87 0 1 1 .42 2.61 1.87 1.87 0 0 1-.42-2.61zm8.95-1.63a1.87 1.87 0 1 1 .42 2.61 1.87 1.87 0 0 1-.42-2.61zm-4.46-13.15a.68.68 0 0 1 .41-.88.69.69 0 0 1 .88.41l2.57 7.29a.63.63 0 0 1-.37.8.62.62 0 0 1-.8-.38zm-3.75.42a.69.69 0 0 1 .68-.7.68.68 0 0 1 .7.67l.07 7.73a.63.63 0 0 1-.62.63.61.61 0 0 1-.63-.61zm-3.6-.86a.68.68 0 0 1 .87-.42.69.69 0 0 1 .42.88l-2.65 7.26a.63.63 0 0 1-.8.37.61.61 0 0 1-.38-.79zm23.71 7.02a1.87 1.87 0 1 1 2.61.42 1.87 1.87 0 0 1-2.61-.42zm4.18-8a1.87 1.87 0 1 1 2.61.41 1.87 1.87 0 0 1-2.61-.41zm1.18-9.01a1.87 1.87 0 1 1 2.61.41 1.87 1.87 0 0 1-2.61-.41zm-13.85.21a.68.68 0 0 1-.71-.66.68.68 0 0 1 .66-.71l7.73-.2a.63.63 0 0 1 .64.61.62.62 0 0 1-.6.64zm-.76 3.66a.69.69 0 0 1-.46-.86.69.69 0 0 1 .86-.45l7.37 2.32a.62.62 0 0 1 .41.78.62.62 0 0 1-.78.41zm-1.93 3.17a.7.7 0 0 1-.13-1 .7.7 0 0 1 1-.12l6.08 4.76a.63.63 0 0 1 .11.88.63.63 0 0 1-.88.11z"/><path class="cls-1" d="M292.73 149.78a13.15 13.15 0 0 0 3 1.71 3.37 3.37 0 0 1 2 2.58c.47 1.85 2 12 2 12l3-.24s-1.86-10.13-2-12a3.32 3.32 0 0 1 1-3.08c.39-.5 2-1.63 2.57-3.14l.09-.34a13.15 13.15 0 0 0 2.19-11.17c-1.58-6.46-7.29-10.44-12.76-8.89s-8.64 8.05-7.06 14.5a12.39 12.39 0 0 0 5.97 8.07zm1.74-20.35c4.34-1.23 8.9 2 10.18 7.27 1 4.06-.28 8.12-2.92 10.32a1.17 1.17 0 0 1-1.76-.39l-2.09-2.88c-.39-.55-.87-.47-1.05.19l-.91 3.36a1.49 1.49 0 0 1-1.71.71 10 10 0 0 1-5.29-6.85c-1.28-5.25 1.2-10.5 5.55-11.73zM341.16 195c3.25-9.19 5.26-10.09 6.5-12.58.71-1.42.13-2.32-1.55-2a128.4 128.4 0 0 0-18.1 5.65c-3.89 1.51-7.38 3-10.53 4.52.56-4.8 2-16.89 2.31-18.39a3.31 3.31 0 0 1 1.84-2.67c.52-.37 2.42-1 3.35-2.29a4.51 4.51 0 0 0 .37-.69A9.7 9.7 0 0 0 329 154a10.37 10.37 0 0 0-13.45-5.06 9.67 9.67 0 0 0-4.72 13.14 10.27 10.27 0 0 0 1.91 2.74 3.38 3.38 0 0 0 .2.76c.59 1.49 2.29 2.54 2.71 3a3.3 3.3 0 0 1 1.16 3c-.06 1.9-2.55 20.35-2.55 20.35l.36.08a75 75 0 0 0-13.2 8.44c.25-1.76.48-3.7.69-5.74a.53.53 0 0 0 0-.17.66.66 0 0 1 .33-.41 15.82 15.82 0 0 0 7.84-8.26c.22-.7-.36-1.15-.82-.31-1.88 3.42-5.43 6.39-6.89 6.87a.41.41 0 0 1-.27 0c.31-3.41.57-7 .73-10.48v-.08a1 1 0 0 1 .42-.49c4.34-2.09 6.54-3.91 7-4.73.32-.65-.06-1.09-.77-.43a18.34 18.34 0 0 1-6.14 3.64c-.29.1-.38-.06-.4-.21.11-3.44.12-6.68 0-9.37 0-.72-1.15-.84-1.17.12 0 3.27-.15 6.34-.3 9.21-.08.08-.2.11-.39 0a21.84 21.84 0 0 1-3.15-3.08c-.65-.69-1.14-.24-.79.43a22 22 0 0 0 3.87 4.33 1.16 1.16 0 0 1 .32.47c-.24 3.86-.54 7.28-.85 10.18 0 0-.1 0-.21-.08-1.25-.89-3.81-6.13-5.35-9.65-.39-.88-1-.67-.88 0 .18 1.41 2.62 8.25 5.95 11.85a.67.67 0 0 1 .2.48c-.38 3.17-.74 5.51-1 6.91a64.44 64.44 0 0 0-8.88-14.85 47.46 47.46 0 0 0-6.25-6.1l1.7-.32s-2.9-9.88-3.26-11.76a3.36 3.36 0 0 1 .7-3.17c.34-.53 1.87-1.83 2.23-3.39a4 4 0 0 0 .08-.87 12.11 12.11 0 0 0 1.62-9.89c-1.61-6.18-7.44-10-13-8.5s-8.81 7.7-7.2 13.88a11.92 11.92 0 0 0 6.38 7.89 4.67 4.67 0 0 0 .37.48c1.12 1.14 3.09 1.47 3.65 1.76a3.32 3.32 0 0 1 2.23 2.36c.49 1.34 2.06 7.26 2.82 10.15a55.23 55.23 0 0 0-10.27-6.52c-1.7-.56-2 .86-1.87 1.47a42.14 42.14 0 0 1 .48 13.26 22.17 22.17 0 0 1-3.65 9.77 23.88 23.88 0 0 0-2.93-3.11c-.65-.55-1.48-.28-1.83.66s-3 8.08-6.95 13a45 45 0 0 1-9.22 9.05 48.58 48.58 0 0 0-12.07-15c-1.15-.91-1.73-.16-2 .66s-2.06 9.24-9.15 22.84a73.86 73.86 0 0 1-15.51 19.49q-.69-.23-1.41-.42a56.94 56.94 0 0 0-11.46-1.63h-1.52c-.54 0-.6-.12-.79-.59-.1-.25-.36-1-.49-1.26a56.76 56.76 0 0 0-5.24-10.72 39.56 39.56 0 0 0-6.87-7.92 1.84 1.84 0 0 0-2.5-.06s-4.8 4.89-4.81 4.89a.52.52 0 0 1-.72 0l-4.74-4.83a1.92 1.92 0 0 0-2.55 0 39.56 39.56 0 0 0-6.87 7.92 57 57 0 0 0-5.11 10.56c0 .06 0 .13-.07.2-.11.31-.35.95-.43 1.16-.19.5-.3.54-.8.57l-1.26.06a59.64 59.64 0 0 0-12 1.68c-.92.26-1.82.54-2.69.85a75.5 75.5 0 0 1-14.41-16.91c-4.3-6.86-10-22.94-10.92-24.44-.45-.75-1-.91-1.56-.33A64.3 64.3 0 0 0 98 217.74a46 46 0 0 1-6.74-7.18C88 206 84.6 200 84.19 199.34s-1.12-1.4-2-.35c-.3.37-1.21 1.37-2.41 2.86a41.93 41.93 0 0 1-4.49-9 71.41 71.41 0 0 1-3-14.15c-.14-1-.7-1.54-2.13-.89a51.7 51.7 0 0 0-10.32 7.74c1-5 2.9-15 3.28-16.36a3.34 3.34 0 0 1 2-2.53c.54-.33 2.48-.82 3.5-2.05a3.47 3.47 0 0 0 .34-.51 11.91 11.91 0 0 0 5.73-8.36c1.12-6.29-2.59-12.23-8.27-13.27s-11.1 3.25-12.22 9.53a12.08 12.08 0 0 0 2.4 9.72 3.36 3.36 0 0 0 .15.87c.48 1.52 2.11 2.69 2.49 3.2a3.35 3.35 0 0 1 .94 3.11C60 170.31 58 180.17 57 185.16a60.94 60.94 0 0 0-4.14-8.4 23.84 23.84 0 0 0-7.94-7.76c-.23-3.88-.8-14-.72-15.55a3.35 3.35 0 0 1 1.41-2.92 13.53 13.53 0 0 0 2.66-2.29 12.4 12.4 0 0 0 4.19-9.06c.26-6.65-4.13-12.38-9.8-12.82s-10.48 4.61-10.74 11.25a13.13 13.13 0 0 0 4.36 10.52 3 3 0 0 0 .16.31c.82 1.38 2.66 2.15 3.14 2.56a3.34 3.34 0 0 1 1.62 2.82c.18 1.51.57 11.46.72 15.42A73 73 0 0 0 30.5 181.7a65.32 65.32 0 0 0-3.5 6.41c-.73-5.52-2-15.14-2-16.48a3.33 3.33 0 0 1 1.17-3c.41-.48 2.11-1.53 2.71-3a4 4 0 0 0 .2-.76 10.5 10.5 0 0 0 1.91-2.74 9.68 9.68 0 0 0-4.72-13.14A10.37 10.37 0 0 0 12.74 154a9.69 9.69 0 0 0 3.66 12.59 4.51 4.51 0 0 0 .37.69c.93 1.3 2.83 1.92 3.35 2.29a3.33 3.33 0 0 1 1.88 2.67c.34 1.66 2.07 16.33 2.46 19.68a63.39 63.39 0 0 0-7.53-2.24c-1.89-.45-11.83-3-15.18-4.3-1.13-.44-1.71.18-1.71 1s-.29 18.62 3.7 28.03a71.27 71.27 0 0 0 6.85 12.32 26 26 0 0 0-5.53 1.79c-1.52.82-.69 1.77-.44 2.21a157.84 157.84 0 0 0 19 25.55c4.88 5.27 16.16 13.84 18.62 15.44l-.61.51c-1.1.94-1.2 1.56-.17 2.3s15.6 18.54 54.45 18a96.28 96.28 0 0 0 25.76-3.5l-1.9 1c-12 6.31-17.78 8.87-18.63 9.25a1.06 1.06 0 0 0 0 1.88c1 .51 9.9 5.44 9.9 5.44a1.77 1.77 0 0 0 1.41 0 128.33 128.33 0 0 0 17.23-9.9c3.57-2.51 5.86-4.34 7.26-5.54-.2 1.38-.34 2.71-.39 3.88a39.27 39.27 0 0 0 .91 10.45 1.85 1.85 0 0 0 2 1.52l6.77-1.14a.51.51 0 0 1 .56.45l1 6.69a1.93 1.93 0 0 0 2.08 1.48 39.35 39.35 0 0 0 10.22-2.37 56.24 56.24 0 0 0 10.1-5.39l.37-.23 1-.69c.45-.29.55-.26 1 0l1.45.94a56.27 56.27 0 0 0 10.18 5.33 39 39 0 0 0 10.22 2.37 1.85 1.85 0 0 0 2.06-1.41s1-6.78 1-6.79a.51.51 0 0 1 .6-.4l6.67 1.12a1.92 1.92 0 0 0 2.05-1.52 38 38 0 0 0 .41-14.93c3 2.48 17.09 14.65 17.47 15a2.81 2.81 0 0 0 1 .5l.5-.07c.49-.07 13.29-2.26 13.29-2.26 1.22-.24 1.59-1.47.82-2s-9.15-5.15-16.37-9.62c-4.24-2.63-8-5.29-10.9-7.45a213.29 213.29 0 0 0 23.4 6.09c8.53 1.8 38.83 8.44 66.21-12.83a1.19 1.19 0 0 0 .08-1.82c-.18-.13-1.72-1.51-4.25-3.59a168.62 168.62 0 0 0 19.32-13.24c12.14-9.69 19-21 20.83-22.82a34.73 34.73 0 0 1 5.68-4.44 1.09 1.09 0 0 0-.35-2 83.82 83.82 0 0 0-18.07-3 49.16 49.16 0 0 0 9.5-13.5c2.86-6.29 4.14-13.77 5.8-18.47zM56.27 152.41c.91-5.11 5.3-8.58 9.81-7.76s7.44 5.64 6.53 10.75a9.35 9.35 0 0 1-6.85 7.7 1.05 1.05 0 0 1-.57-.6l-.83-3.39c-.16-.66-.63-.76-1-.21l-2.16 2.82a1.52 1.52 0 0 1-.72.57 9.42 9.42 0 0 1-4.21-9.88zM316.08 165a8.13 8.13 0 0 1-3.54-3.65 7.77 7.77 0 0 1 3.92-10.51 8.33 8.33 0 0 1 10.84 3.94 7.77 7.77 0 0 1-3.91 10.51 8.59 8.59 0 0 1-1.81.56 1.56 1.56 0 0 1-.53-.78l-1.2-3.35c-.23-.64-.71-.69-1.07-.11l-1.81 3a1.12 1.12 0 0 1-.89.39zM282 161.92a1.52 1.52 0 0 1-.76-.5l-2.38-2.65c-.45-.51-.91-.37-1 .3l-.56 3.44a1.06 1.06 0 0 1-.52.65 9.38 9.38 0 0 1-7.45-7.14c-1.3-5 1.23-10.05 5.66-11.23s9.09 1.94 10.4 7a9.39 9.39 0 0 1-3.39 10.13zm-8.86 25.74a38.43 38.43 0 0 0 0-11.14c-.12-.89.11-.77 1.15-.19A64.87 64.87 0 0 1 289 188.5c4.19 4.88 7.67 12.62 8.78 15.22a50.24 50.24 0 0 0-6.26 7.42 46.79 46.79 0 0 1-15 8.94c-.2.07-.37-.09-.49-.42q-.09-.66-.18-1.35a49 49 0 0 0-.94-5 .43.43 0 0 0 0-.19c0-.18-.06-.55.1-.63 6.06-3.24 11.92-7.55 15.26-14.08.36-.71-.36-1.61-.88-.7-3.61 6.31-9 10.1-14.78 13-.21.1-.31.09-.49-.4a.2.2 0 0 0-.07-.1 47.5 47.5 0 0 0-1.72-4.56.25.25 0 0 0 0-.07c-.06-.15-.24-.51-.05-.79 4.89-7 4.18-16.56 4-19.85 0-.73-1.05-1-1 0 .28 10.4-2 14.67-3.67 17.91-.1.18-.31.47-.5.14a38.58 38.58 0 0 0-2.17-3.59 29 29 0 0 0 4.17-11.74zm3.9 44.43c0-.11 0-.21.14-.23a25 25 0 0 0 5.32-1c.26-.1.14.19.15.32-.58 2.59-.9 4.81-1.08 6.26a57.26 57.26 0 0 0-4.89 3.41 63.3 63.3 0 0 0 .32-8.76zm.19-1.93c-.2 0-.2 0-.24-.4v-.08c-.09-2.2-.28-4.68-.58-7.46 0-.15.08-.28.16-.31a44.83 44.83 0 0 0 12.73-7.14c-.89 1.5-1.71 3-2.5 4.56a47 47 0 0 0-3.59 9.64c-.06.14 0 .21-.36.34a20.24 20.24 0 0 1-5.65.85zm-13.26-32.59c.1-.24.1-.56.53-.13s8.11 8 9.75 25a88.57 88.57 0 0 1-.1 20.57 35.59 35.59 0 0 0-7.7 9.38 52.74 52.74 0 0 0-8.41-2.62c-2.16-.46-4.23-.8-6.23-1 0-1.19 0-3.42-.1-6.25a.51.51 0 0 1 .27-.24c10.22-2 15.28-4.57 18-6.36.61-.4.36-1.36-.49-.91a49.32 49.32 0 0 1-17.62 5.56.4.4 0 0 1-.3-.11c-.15-2.57-.41-5.5-.83-8.52 0-.16 0-.36.14-.38 10.26-1.76 15.36-4.27 18.16-6 .62-.39.38-1.35-.47-.92a49.37 49.37 0 0 1-17.73 5.22.53.53 0 0 1-.49-.46q-.26-1.5-.57-3c-.19-.85-.4-1.67-.63-2.49 0-.36.1-.45.22-.54a25.51 25.51 0 0 0 6-5.9h.05a.82.82 0 0 1 .51-.16 17.87 17.87 0 0 0 9.86-3.83c.51-.52.24-1-.59-.51-4.05 2.44-6.91 2.9-8.4 2.79-.22 0-.16-.16-.1-.25l-.08.1a24.31 24.31 0 0 0 3.21-10 47.56 47.56 0 0 0 4.11-8.04zM256 210.68c.57-.71 1.09-1.38 1.57-2 .17-.18.37-.21.29.06a26.5 26.5 0 0 1-8.81 12.78c-.16.12-.32.32-.58.07h-.06q-.48-1.36-1-2.64a45.45 45.45 0 0 0 8.59-8.27zm-29.55 13.17a144.19 144.19 0 0 0 7.42-18.56c.17-.49.41-.57 1-.08.42.36 9.57 9.4 12.29 19.71a80.19 80.19 0 0 1 2.36 23.55 52.9 52.9 0 0 0-16.22 1 102.39 102.39 0 0 0 10-8.62c.5-.53.09-1.08-.61-.41a102 102 0 0 1-13 10.05c-7.68 2.46-12.34 6.26-14 8l-1.82-.91a.51.51 0 0 1-.2-.69l3.13-6a1.93 1.93 0 0 0-.81-2.42l-1-.56a65.63 65.63 0 0 0 5.36-5.27 37.8 37.8 0 0 0 23-11.27c.55-.47.18-1.43-.53-.79a39.35 39.35 0 0 1-21.05 10.51 46.55 46.55 0 0 0 8-13.27.64.64 0 0 1 .18-.06c6.47-1.5 8-6.08 8.74-7.44.35-.64-.26-1.2-.7-.34-2.52 4.93-6.07 6.11-7.54 6.41a.17.17 0 0 1-.15 0 64.8 64.8 0 0 0 2.49-10.73c.13-.71-.59-1.08-.73-.13-2.37 16.36-14.79 28.17-18.68 31.52-1-.52-2.13-1-3.26-1.42a74 74 0 0 0 16.33-21.78zm-118.16-17c.39-.13.52-.06.72.46s5.16 13.7 9.34 21.17a74.45 74.45 0 0 0 14.48 17.66 38 38 0 0 0-4.55 2.3 1.86 1.86 0 0 0-.83 2.36l3.17 6.08a.51.51 0 0 1-.24.68l-.65.32a46.64 46.64 0 0 0-13.57-5.55A134.41 134.41 0 0 1 100.74 238c-.86-1-1.49-.3-.88.48 3.27 4.2 8.94 9.52 12.64 13.07a67.35 67.35 0 0 0-15.66-1c-1.28-5.26-4-15.4.86-27 3.79-9.07 10.2-16.55 10.59-16.72zm-25.62-4.9c.41-.54.51.11.79.59.45.78 3.87 6.73 6.2 9.8a66.91 66.91 0 0 0 7.16 7.66c-.64 1.33-1.22 2.71-1.75 4.12-1.67-1.54-5.24-5.46-9.34-16.31-.3-.81-1.15-.57-.93.39a42.71 42.71 0 0 0 3.44 9.21c0 .12 0 .24-.16.14a29 29 0 0 1-5-4.41c-.52-.57-1.24-.17-.89.47.73 1.36 4.1 4.81 7.87 7.27a2.68 2.68 0 0 1 .51.5l.07.1v.05a27 27 0 0 0 3.76 4.5 36.31 36.31 0 0 0-1.4 6.48c-.18.26-.63.18-.81.09A40.09 40.09 0 0 1 79 222.3c-.64-.72-1.37.2-.9.76 2.51 3 7.1 8.36 14.21 11.81a1.75 1.75 0 0 1 .43.65 49.85 49.85 0 0 0 .54 9.25.18.18 0 0 0-.09.1.55.55 0 0 1-.68.31 46.77 46.77 0 0 1-14.55-11c-.63-.72-1.2.09-.77.68 2 2.64 4.13 6.06 16.43 13.11a2.62 2.62 0 0 1 .34.47c.21 1 .41 1.72.55 2.23-1.88.15-3.82.36-5.83.67-2.47.38-4.86.85-7.17 1.39a102.17 102.17 0 0 0-11.35-10.37c0-2.15.46-16.53 2.47-22.55a51.08 51.08 0 0 1 10.04-17.88zM57.65 191a58.19 58.19 0 0 1 12.14-10.2c.51-.39.67-.12.67.39A85.06 85.06 0 0 0 73 193.28a56.52 56.52 0 0 0 5.28 10.5c-.35.46-.7.95-1.06 1.46a.67.67 0 0 1-.29-.19c-2.61-2.56-6-6-8.91-16-.27-.92-1.15-.38-1 .33a46.94 46.94 0 0 0 2.41 7.32c0 .18-.11.31-.42 0a35.06 35.06 0 0 1-4.32-4.62c-.56-.78-1.34 0-.93.63a23 23 0 0 0 7.13 7.37 3.46 3.46 0 0 1 .38.31 24.71 24.71 0 0 0 4.54 5.81.89.89 0 0 1 .2.73 50.34 50.34 0 0 0-4 7.36c-.15.09-.3.11-.38 0a82.1 82.1 0 0 1-11.7-14.07c-.61-.86-1.33-.19-.93.49a75.09 75.09 0 0 0 11.78 15.26.78.78 0 0 1 .29.62 33.7 33.7 0 0 0-1.61 5.91c-.08.47-.15.95-.23 1.43-.22.28-.25.39-.45.24A58.42 58.42 0 0 1 54 208.68c-.62-.91-1.4-.23-1 .48 1.93 3.19 4 8.16 15.63 17.23a1.45 1.45 0 0 1 .24.36c-.79 6.4-1 12.5-1 13.81-.4-.31-.82-.61-1.24-.91s-.94-.67-1.48-1c-.81-3-3.73-11.9-11.48-22.32a115.56 115.56 0 0 0-6.37-7.87c1.29-3.04 6.11-12.63 10.35-17.46zm-13.31-19.61a28.62 28.62 0 0 1 8.33 9.76c1.89 3.9 3.06 6.87 3.57 8.23a45.05 45.05 0 0 0-4 5.18 101.39 101.39 0 0 0-6.65 12.08c-.53-.56-1.06-1.11-1.58-1.63 0-.59-.17-2.33-.28-5a.68.68 0 0 1 .23-.43c3.3-2.64 4.12-4.71 5.32-6.57.39-.61-.33-1.39-.87-.6a24.08 24.08 0 0 1-4.52 5.16c-.13.1-.2.1-.24.07-.07-2.53-.11-5.61-.08-9.15l.09-.09a1.59 1.59 0 0 1 .36-.44 19.21 19.21 0 0 0 5.48-6.6c.33-.67-.13-1.21-.75-.5a49.55 49.55 0 0 1-4.39 4.93.8.8 0 0 1-.73.23v.25c.09-4.43.3-9.44.71-14.88zm-3.8-24.82a1.18 1.18 0 0 1-1.69.72 10.35 10.35 0 0 1-4.85-9.52c.21-5.4 4-9.5 8.54-9.15s8 5 7.77 10.39a10.05 10.05 0 0 1-3.83 7.77 1.49 1.49 0 0 1-1.81-.35l-1.57-3.12c-.3-.61-.78-.6-1.06 0zm-8.14 36.25c3.38-5.09 9.52-10.45 10.52-11.42l.27-.22A158.7 158.7 0 0 0 42 188a.41.41 0 0 1-.53-.19 28.25 28.25 0 0 1-2.79-5.63c-.29-.92-1.14-.56-1 .15.22 1.1.92 3.59 3.63 7.57a12.3 12.3 0 0 1 .62 1.07v7.22c-.07.23-.21.52-.36.39-2.14-1.81-3.07-3.39-6.15-6.91-.63-.73-1.13 0-.74.46a111.13 111.13 0 0 0 6.95 8.71 3.59 3.59 0 0 1 .4.85c0 .47 0 .93.06 1.37A52.9 52.9 0 0 0 27.16 193a82.85 82.85 0 0 1 5.24-10.18zM23 161.64c-.36-.58-.83-.53-1.06.11l-1.2 3.35a1.56 1.56 0 0 1-.53.78 8.59 8.59 0 0 1-1.81-.56 7.78 7.78 0 0 1-3.92-10.51 8.34 8.34 0 0 1 10.85-3.94 7.78 7.78 0 0 1 3.92 10.51 8.13 8.13 0 0 1-3.58 3.62 1.1 1.1 0 0 1-.89-.41zM5.13 211.38c-2.79-7.42-2.72-21-2.85-22.77 0-.51.22-.57.76-.38 5.75 2 18.58 4.78 23.4 7 12.78 5.76 22.54 18.87 24.73 21.7a76.28 76.28 0 0 1 10.91 19.79A73.87 73.87 0 0 0 50.25 231a4.8 4.8 0 0 1-.12-.9c0-5.57-.08-7.42-.39-8.93-.15-.72-1-.66-1 .24a35.45 35.45 0 0 1 0 8.57.55.55 0 0 1-.23.4 86.18 86.18 0 0 0-10.07-2.9.75.75 0 0 1 0-.44c.91-8.64.39-13.46 0-15-.16-.71-1-.6-.91.3.44 4.92.05 7.34-.54 14.51a.26.26 0 0 1-.19.23c-1.84-.38-3.76-.73-5.76-1-1.54-.23-3-.38-4.47-.48-.08 0-.16-.09-.12-.38 1.41-9.09.18-21.43-.35-22.88-.25-.69-1.17-.73-1 .17.93 5.82 1 19.06 0 22.71a.41.41 0 0 1-.26.28 57.09 57.09 0 0 0-6.9.14h.09a.29.29 0 0 1-.22-.13c-1.25-1.56-3.44-6-5.21-10.34-.26-.64-.57-1.41-.92-2.33s0 0-.08-.09l-.18-.47a.48.48 0 0 1 .14-.23c5.37-5.1 4.58-13.19 4.41-14.73-.09-.84-.79-.59-.75-.05a17.15 17.15 0 0 1-4.14 13.34c-.09.11-.22 0-.31-.07-.8-2.15-1.79-4.89-3-8.43-.14-.43-1-.36-.78.43a109.46 109.46 0 0 0 4.23 13c.94 2.35 3.28 7.32 4.7 10 .11.2.2.27 0 .35-1 .11-1.9.25-2.76.4a54.79 54.79 0 0 1-8.03-14.91zm17.26 40.16a133.62 133.62 0 0 1-15.18-21.06c-.19-.32-.12-.38.26-.57a53.63 53.63 0 0 1 24.6-1.46c7.34 1.33 27.32 4.3 46.8 24.8l.08.07c-3.27.86-6.36 1.85-9.27 2.93-.12 0-.26-.08-.27-.38a30.3 30.3 0 0 0-1.41-7.51c-.29-.79-1-.44-.87.08a22.7 22.7 0 0 1 .83 8.09 2.19 2.19 0 0 1-.08.43c-3.15 1.24-6.06 2.57-8.7 3.9-.07 0-.12-.07-.14-.23-1.07-10.22-2.73-15.84-3.55-17.15-.38-.62-1.16-.35-.89.52 1.62 5.17 2.14 9.36 2.83 17.28a1 1 0 0 1-.16.57c-2.66 1.42-5 2.82-7 4.12a.89.89 0 0 1-.75 0c-.39-.2-.77-.42-1.15-.63a1.08 1.08 0 0 1-.11-.46 55.6 55.6 0 0 0-6.39-26.24c-.39-.62-1.1-.47-.77.38 2.12 5.49 5.47 12.3 5.65 24.87a1.06 1.06 0 0 1-.1.47 89 89 0 0 1-10.84-7.68 1.68 1.68 0 0 1-.29-.71c-2.07-14.32-5.94-21.75-6.85-23-.43-.59-1.17-.15-.69.63 2.26 3.68 5.1 14.62 5.79 20.94 0 .21-.17.19-.31.15-4.65-4-8.55-8-11.44-10.92-.68-.68-1.19.26-.71.8a133.54 133.54 0 0 0 26.46 22.56c.38.25.33.13.11.41-1.44 1-2.64 1.86-3.6 2.59a109.94 109.94 0 0 1-21.89-18.59zm73.39 38.6c-10.9.3-35-1.06-51.61-16.05-.47-.43-.46-.66.45-1.33 20.3-15 34.28-17.38 43.18-19.06 18.38-3.49 32.91 1.84 39.46 5.39l-2.94 1.47a1.92 1.92 0 0 0-.77 2.43 39.43 39.43 0 0 0 5.41 9 41.91 41.91 0 0 0 3.44 3.71c-.81.37-2.12.92-3.89 1.57h-.17a.44.44 0 0 1-.42-.21c-9.71-12.12-20.25-18.74-21.43-19.27-.56-.24-.92.23-.26.63 6.08 3.68 13.57 11.06 20 19.14a.35.35 0 0 1 .06.44 99.68 99.68 0 0 1-16.51 4 .83.83 0 0 1-.37-.41c-6.88-13.7-19.5-20.61-20.87-21.33-.65-.33-1.13.18-.38.7a60.79 60.79 0 0 1 19.49 20.91.39.39 0 0 1 0 .43 111.19 111.19 0 0 1-18.18.87.81.81 0 0 1-.41-.4c-6.87-11.07-15.18-18.58-16.72-19.42-.64-.35-1.12.2-.41.76 4.59 3.65 9.74 9.26 15.18 18.59.14.23-.08.33-.17.36a117.25 117.25 0 0 1-14.71-1.77 2.54 2.54 0 0 1-1.25-1A54.58 54.58 0 0 0 59.42 270c-.64-.35-.87.26-.51.55a72.09 72.09 0 0 1 10.42 10c.06.08.07.13 0 .15a125.67 125.67 0 0 1-17.13-4.87c-1-.35-.87.75-.15 1 39 15 71.61 4.93 81.93.36 1 .91 2 1.76 2.88 2.48l-.61.44c-3.25 2.22-15.73 9.36-40.47 10.03zm42.83-6.78c-.35 1.19-.7 2.64-1 4.18a95.71 95.71 0 0 1-10.3 8.12 127.52 127.52 0 0 1-15 8.57 1.11 1.11 0 0 1-1 0c-.19-.19-6.38-3.47-6.41-3.49a.4.4 0 0 1 0-.68c.38-.19 11.35-5.44 17.16-8.6a162.53 162.53 0 0 0 16.69-10.27c.32.27.31.41.2.85-.07.26-.28 1-.36 1.31zm66.15 20.28c-.17.74-.41 1.06-1.18 1l-7-1a.76.76 0 0 0-.9.71s-1 6.27-1.14 6.86c-.17.76-.58.89-1.3.83a31.45 31.45 0 0 1-8.46-1.95 53.75 53.75 0 0 1-11.36-6.53c-1.1-.87-1.23-1.12-2.11-.41-.32.25-.7.52-1 .8a53.25 53.25 0 0 1-10.86 6.16A31.92 31.92 0 0 1 151 312c-.75.06-1.13-.07-1.3-.83 0 0-1.15-6.91-1.16-6.94a.78.78 0 0 0-1-.63s-6.27 1-6.88 1c-.77.07-1-.29-1.18-1a31.77 31.77 0 0 1-.77-8.64 53.83 53.83 0 0 1 2.71-12.82c.5-1.38.72-1.57-.24-2.2-.34-.22-.71-.5-1.08-.74a53.89 53.89 0 0 1-9.37-8.54 31.91 31.91 0 0 1-4.47-7.44c-.29-.7-.28-1.1.38-1.49l6.25-3.25a.76.76 0 0 0 .3-1.1s-2.87-5.67-3.11-6.23c-.3-.71-.05-1.05.57-1.43a31.93 31.93 0 0 1 8-3.4 53.73 53.73 0 0 1 13-1.39c1.6.05 1.85.25 2.17-.9.1-.39.26-.84.37-1.28a52.93 52.93 0 0 1 5.18-11.39 32 32 0 0 1 5.69-6.55c.58-.49 1-.61 1.54-.1l5 4.94a.76.76 0 0 0 1.14-.05s4.5-4.49 5-4.89 1-.37 1.54.1a31.5 31.5 0 0 1 5.7 6.55 53.85 53.85 0 0 1 5.35 12c.41 1.44.34 1.73 1.49 1.67h.54a53.89 53.89 0 0 1 13.15 1.41 31.41 31.41 0 0 1 8 3.4c.65.39.88.72.58 1.43l-3.15 6.3a.78.78 0 0 0 .4 1.07s5.66 2.89 6.18 3.2.66.83.38 1.5a31.74 31.74 0 0 1-4.46 7.44 53.34 53.34 0 0 1-9.67 8.74c-1.27.87-1.58.87-1.17 2 .08.21.16.44.24.68a53.83 53.83 0 0 1 2.69 12.8 31.77 31.77 0 0 1-.77 8.64zm15.33-11.24c7.42 5 14.91 9 15.26 9.26a.32.32 0 0 1 .14.49l-8.76 1.48a1.17 1.17 0 0 1-1.06-.28c-.28-.28-7.56-6.5-9.53-8.19l-9.63-8.26c-.3-1.33-.61-2.58-.92-3.62-.09-.33-.26-.94-.32-1.14v-.1l.77.26c2.19 1.75 7.33 5.6 14.05 10.1zm79.64-15.94c.49.42.42.57 0 .82-.7.42-15.58 13-41.47 13.52-18.78.36-44.09-8.06-50.54-10.33l-.6-.5a60.65 60.65 0 0 0 4.57-4.08c10.51 4.46 47.49 18 76.17 2.84.64-.34.2-1.16-.67-.75a63.82 63.82 0 0 1-13.19 4.43c-.1-.07-.25-.24-.07-.39a57.08 57.08 0 0 1 10.22-6.74c.41-.22.28-.86-.41-.63-1.55.52-6.62 2.79-13.15 8.11a3.76 3.76 0 0 1-1.08.49 81 81 0 0 1-14 .89s-.18-.16 0-.36a61.37 61.37 0 0 1 20-13.16c.84-.35.53-.94-.19-.85-1.53.21-10.89 3.4-22 14a1.15 1.15 0 0 1-.79.28 109.86 109.86 0 0 1-22.69-3.73c-.09-.1-.22-.3 0-.45a73 73 0 0 1 27.5-14.76c.88-.23.6-.88-.12-.78-1.54.2-18.29 4.5-29.39 15.08a.91.91 0 0 1-.39.23 116.31 116.31 0 0 1-14.37-5.21c.53-.57 1-1.13 1.5-1.67 8.63-7.49 20.16-12.5 28.26-14.66.88-.23.6-.88-.12-.78a70.7 70.7 0 0 0-24.68 10.63 37.81 37.81 0 0 0 2.53-4.88 1.85 1.85 0 0 0-.71-2.4l-2.12-1.06c2.18-2.11 12.78-11 34.42-8.66 17.33 1.88 37.36 16.6 47.58 25.51zm40.19-45.26c1.21.24.57.64.14 1a27.85 27.85 0 0 0-5.57 5.54c-6.3 8.91-9.95 12.91-17.47 19.08a132.14 132.14 0 0 1-20.45 14.14c-1.2-.95-2.55-2-4-3.12v-.06c-.26-.36-.4-.29.06-.47 5.46-2.21 11.59-4.71 25-18 6.32-6.29 8.8-7.5 16.45-13.19.59-.43.35-1.29-.47-.79a88.41 88.41 0 0 0-14.31 10.38.57.57 0 0 1-.09-.53 37.08 37.08 0 0 1 4.35-9.62c.48-.77-.15-1.16-.58-.58a31.71 31.71 0 0 0-5.62 12.25 2.21 2.21 0 0 1-.31.67 2.28 2.28 0 0 1-.22.22A88.68 88.68 0 0 1 304.11 259a.76.76 0 0 1-.11-.49c.5-9.42 3.53-16.59 5.65-22.08.32-.85-.38-1-.77-.38a59.89 59.89 0 0 0-6.49 23.66 1.13 1.13 0 0 1-.21.61 51 51 0 0 1-11.4 5.86.85.85 0 0 1-.5 0c-1.3-.95-2.68-1.93-4.12-2.91a.86.86 0 0 1-.05-.39c.69-7.91 3.5-14.31 5.42-20.06.29-.87-.29-1-.67-.41a60.74 60.74 0 0 0-6.22 19.39c-.05.31-.16.32-.23.29-2.84-1.87-5.88-3.73-9-5.44a1.47 1.47 0 0 1-.24-.44 19.69 19.69 0 0 1-.2-7c.06-.46-.6-.68-.75 0a23.35 23.35 0 0 0-.41 6.19c0 .31-.1.31-.19.28a89.29 89.29 0 0 0-5.05-2.41c7.6-13.67 28.52-22.27 41.73-23.68a88 88 0 0 1 29.62 1.61zm-17.46-4.45c-2.3-.05-4.68 0-7.11.14l-.11-.06c-.42-.17.39-.53.73-.88a67.89 67.89 0 0 0 12.26-16.08c4.26-7.83 6-12.58 9.91-17.42.46-.57-.34-1.37-.94-.62-3.74 4.66-6.31 9.71-8.52 13.82a.63.63 0 0 1-.3-.44 31.54 31.54 0 0 1-.21-10.91c.12-.91-.61-1-.76-.29a31.67 31.67 0 0 0-.06 13.47 2.08 2.08 0 0 1 0 .55c-.3.52-.6 1-.89 1.49a76.05 76.05 0 0 1-9.32 12.48v-.05s-.48.09-.54-.23a51.7 51.7 0 0 1-.33-15.67c.08-.9-.75-1-.91-.3a50.73 50.73 0 0 0 .07 17.19 1.85 1.85 0 0 1-.05.79c-1.08 1-2.09 1.93-3.07 2.82a7.32 7.32 0 0 1-1.37.74 74 74 0 0 0-8.49 1.47.61.61 0 0 1-.21-.46c-.3-6.64.44-10.68 1.37-16.5.15-.9-.77-.86-1-.18-.53 1.46-1.6 6.06-1.9 17a.75.75 0 0 1-.24.59 66 66 0 0 0-9.94 3.48c-2.2 1-4.19 2-6 3 .46-6.84 5.42-32.31 39.4-45.5a172.24 172.24 0 0 1 19.37-6.64c1.25-.35.85.14.57.7a39.13 39.13 0 0 0-5.4 11.75c-3.9 15.29-6.24 18.76-10.31 24.88a23.64 23.64 0 0 1-5.7 5.87zm-65.72-11.36l.05-.07zm-134.12 27.27a1.48 1.48 0 0 1 .41.17 29.61 29.61 0 0 0 3.14 2.92c.85.67 2.41-.17 1.55-1.12-.65-.72-11.21-9.11-16.29-27.83-.23-.84-1-.59-.85.35a44.53 44.53 0 0 0 2.76 9.57c0 .13 0 .35-.15.21a49.29 49.29 0 0 1-7.54-6.41c-.55-.56-1.05-.31-.7.33.73 1.36 4.89 5.73 9 8.15.17.1.34.15.42.27a53.71 53.71 0 0 0 6.52 11.08c0 .12 0 .26-.16.22-9.23-2.27-12.72-7.11-16.11-10.34-.7-.66-1.13.07-.68.65a30.6 30.6 0 0 0 18.68 11.78zM18 225.59z"/></g></g></svg>