<svg id="blackback-solidcolor" xmlns="http://www.w3.org/2000/svg" viewBox="0 0 926 360"><defs><style>.cls-3{fill:#b2b2ba}</style></defs><path d="M295.58 74.64C265.92 50.8 222.41 56 198.46 85.55L166 125.62a16.39 16.39 0 0012.74 26.71h94.96a27.87 27.87 0 0127.3 22.08l.57 2.69 4.42-5.46a68.85 68.85 0 00-10.41-97z" fill="#f57"/><path d="M108.51 259.53c29.66 23.85 73.17 18.66 97.12-10.91l32.45-40.07a16.39 16.39 0 00-12.74-26.71H130.4a27.87 27.87 0 01-27.26-22.08l-.57-2.69-4.42 5.46a68.85 68.85 0 0010.36 97z" fill="#6b6b70"/><path class="cls-3" d="M602.67 84.07V137c0 16.6 12.26 28.85 33.93 28.85 20.41 0 33.72-11.14 33.72-29.31V84.07h-11.84v49.08c0 17.23-7.37 22.79-20.75 22.79-14 0-19.54-7.12-19.54-23.14V84.07zm-217.92 19.17c0-6.58 4.52-10.43 13.32-10.43 9.59 0 15.9 2.67 23.75 7.8v-13A61.63 61.63 0 00398 82.92c-17.52 0-30 8.63-30 21.62 0 26.61 40.85 22.31 40.85 40.19 0 7.1-5.21 11.1-12.71 11.1-11.06 0-20.93-5.53-28-11.39v13.35c8 5.74 18.26 7.93 29 7.93 17.21 0 28.31-9 28.31-22.48.15-28.44-40.7-22.84-40.7-40zm370.06 4.51c0-17.53-14.71-23.68-28.9-23.68H690v80.5h15.52v-32.08h14.81l18.32 32.08h17.88l-19.36-33.95c8.68-2.33 17.64-9.39 17.64-22.87zM705.56 94h15.21c10.39 0 17.36 4.71 17.36 14.46 0 10.4-8.29 14-17.36 14h-15.21zm-134.03 70.57h19.41l-33.61-44.79 31.69-35.71h-13.23l-39.42 44.43V84.07h-15.52v80.5h15.52v-21.18l10.44-11.76 24.72 32.94zm-78.37 0h16.65l-31.45-81.08h-15.77l-31.45 81.07h12.7l8.27-21.31h32.78zm-37.21-31.2L468.5 101l12.56 32.37zm370.69 31.2h16.65l-31.45-81.08h-15.77l-31.45 81.07h12.7l8.27-21.31h32.78zm-37.21-31.2L802 101l12.56 32.37zm-415.83 82.4h14.72v59.8H373.6z"/><circle class="cls-3" cx="380.96" cy="200.13" r="8.74"/><path class="cls-3" d="M544.81 214.5c-18 0-28.58 12.76-28.58 31v.58c0 19 12 30.7 30.56 30.7a42 42 0 0022-5.88v-10.18c-6.89 5.12-13.81 7.6-21.79 7.6-8.59 0-14.9-5.93-14.9-19.42h40.24c.01-21.4-8.11-34.4-27.53-34.4zm-12.54 25.89c.47-10.47 3.73-17.39 12.54-17.39 8.36 0 11.41 7.63 11.67 17.38zm193.5-25.89c-18 0-28.58 12.76-28.58 31v.58c0 19 12 30.7 30.56 30.7a42 42 0 0022-5.88v-10.18c-6.89 5.12-13.81 7.6-21.79 7.6-8.59 0-14.9-5.93-14.9-19.42h40.24c0-21.4-8.12-34.4-27.53-34.4zm-12.54 25.89C713.7 229.92 717 223 725.77 223c8.36 0 11.41 7.63 11.67 17.38zm-223.1 19v-35.11h17.34v-8.51h-17.34v-17.71h-14.72v17.71h-8v8.51h8v36c0 9.69 8 16.53 19.73 16.53 5.33 0 9.23-1 12.47-3.15v-7.46a25.12 25.12 0 01-9.18 1.63c-4.96.03-8.3-3.3-8.3-8.44zm-51.26-44.89c-7.93 0-16 5.3-19.55 10.12v-8.85H404.6v59.79h14.72v-41.88c3.3-6.14 8.8-9.14 13.43-9.14a8.68 8.68 0 018.82 8.72v42.31h14.72V230c0-7.32-5.09-15.5-17.42-15.5zm228.34 0c-7.93 0-16 5.3-19.55 10.12v-8.85h-14.72v59.79h14.72v-41.88c3.3-6.14 8.8-9.14 13.43-9.14a8.68 8.68 0 018.82 8.72v42.31h14.72V230c0-7.32-5.09-15.5-17.42-15.5zm-66.86 11.83v-10.56h-14.72v59.8h14.72v-40.13c6.08-6.61 13.16-9.09 22.22-9.09v-11.16a27.38 27.38 0 00-22.22 11.14zm184.04 33.06v-35.11h17.34v-8.51h-17.34v-17.71h-14.72v17.71h-8v8.51h8v36c0 9.69 8 16.53 19.73 16.53 5.33 0 9.23-1 12.47-3.15v-7.46a25.12 25.12 0 01-9.18 1.63c-4.95.03-8.3-3.3-8.3-8.44z"/></svg>