<svg width="783" height="140" viewBox="0 0 783 140" xmlns="http://www.w3.org/2000/svg" xmlns:xlink="http://www.w3.org/1999/xlink"><defs><path id="a" d="M0 .133h139.2v139.2H0z"/></defs><g fill="none" fill-rule="evenodd"><path d="M64.478 84.126a5.8 5.8 0 01-1.587-.222 27.714 27.714 0 01-8.664-4.194c-12.442-8.96-15.275-26.372-6.315-38.814 4.34-6.027 10.768-10.003 18.1-11.196 7.33-1.193 14.687.54 20.714 4.881a27.766 27.766 0 019.345 11.686 5.81 5.81 0 11-10.697 4.538 16.149 16.149 0 00-5.438-6.795 16.08 16.08 0 00-12.059-2.841 16.081 16.081 0 00-10.536 6.517c-5.216 7.244-3.566 17.38 3.676 22.595a16.14 16.14 0 005.042 2.444 5.81 5.81 0 01-1.581 11.4" fill="#00C4CC"/><path d="M69.154 110.706c-5.629 0-11.307-1.7-16.212-5.232a27.892 27.892 0 01-10.527-15.06 5.81 5.81 0 0111.19-3.13 16.008 16.008 0 006.127 8.76c7.242 5.216 17.379 3.567 22.595-3.676 5.216-7.243 3.566-17.379-3.677-22.595a16.319 16.319 0 00-2.844-1.643 5.81 5.81 0 114.762-10.599 27.976 27.976 0 014.873 2.813c12.442 8.96 15.275 26.372 6.315 38.814-5.427 7.537-13.956 11.548-22.602 11.548" fill="#00C4CC"/><g transform="translate(0 .294)"><mask id="b" fill="#fff"><use xlink:href="#a"/></mask><path d="M94.643.133H44.558c-6.01 0-11.847 1.18-17.348 3.506a44.39 44.39 0 00-14.16 9.545 44.39 44.39 0 00-9.544 14.159A44.288 44.288 0 000 44.69v50.085c0 6.01 1.18 11.847 3.506 17.348a44.39 44.39 0 009.545 14.16 44.39 44.39 0 0014.16 9.543 44.288 44.288 0 0017.347 3.507h50.085c6.01 0 11.846-1.18 17.347-3.507a44.39 44.39 0 0014.16-9.544 44.39 44.39 0 009.544-14.16 44.286 44.286 0 003.506-17.347V44.69a44.3 44.3 0 00-3.506-17.347 44.39 44.39 0 00-9.545-14.16A44.39 44.39 0 00111.99 3.64 44.286 44.286 0 0094.643.133m0 11.62c18.19 0 32.937 14.746 32.937 32.937v50.085c0 18.191-14.746 32.938-32.937 32.938H44.558c-18.192 0-32.938-14.747-32.938-32.938V44.69c0-18.19 14.746-32.937 32.938-32.937h50.085" fill="#00C4CC" mask="url(#b)"/></g><path d="M370.158 51.218c4.43 4.853 6.645 12.77 6.645 23.758v48.346a2.436 2.436 0 01-2.436 2.437H356a2.436 2.436 0 01-2.436-2.437V78.415c0-3.268-.422-5.803-1.261-7.61-.843-1.806-2.042-3.045-3.602-3.713-1.56-.669-3.576-1.001-6.051-1.001-2.87 0-5.32.693-7.35 2.079-2.03 1.387-3.637 3.315-4.826 5.79v49.362a2.436 2.436 0 01-2.437 2.437h-18.29a2.436 2.436 0 01-2.436-2.437v-44.76c0-3.314-.422-5.89-1.263-7.72-.843-1.83-2.055-3.082-3.638-3.75-1.586-.669-3.614-1.001-6.088-1.001-2.722 0-5.098.606-7.128 1.818-2.03 1.214-3.687 2.934-4.975 5.16v50.253a2.437 2.437 0 01-2.437 2.437h-18.29a2.436 2.436 0 01-2.436-2.437v-75.46a2.437 2.437 0 012.437-2.436h17.07c1.269 0 2.325.974 2.428 2.24l.56 6.894c2.673-3.416 5.94-6.038 9.8-7.872 3.862-1.83 8.243-2.746 13.142-2.746 4.95 0 9.206 1.004 12.77 3.007 3.563 2.005 6.312 5.062 8.24 9.169 2.623-3.909 5.941-6.916 9.95-9.02 4.01-2.104 8.637-3.156 13.884-3.156 8.117 0 14.391 2.426 18.82 7.276m59.221 56.612c2.4-1.363 4.122-3.008 5.16-4.94V89.752h-8.315c-4.95 0-8.611 1.125-10.987 3.378-2.376 2.254-3.565 5.111-3.565 8.575 0 2.426.854 4.394 2.562 5.902 1.708 1.51 3.97 2.265 6.793 2.265 3.167 0 5.95-.68 8.352-2.042m25.959 17.93h-17.248a2.436 2.436 0 01-2.437-2.437v-4.69c-4.85 5.742-11.484 8.611-19.898 8.611-5 0-9.577-1.027-13.734-3.079-4.159-2.055-7.45-4.926-9.876-8.613-2.424-3.687-3.636-7.834-3.636-12.437 0-8.463 3.13-14.985 9.39-19.561 6.261-4.58 15.58-6.87 27.954-6.87h8.687v-4.38c0-3.613-.88-6.422-2.636-8.427-1.758-2.002-4.468-3.007-8.13-3.007-3.267 0-5.804.78-7.61 2.34-1.356 1.169-2.202 2.721-2.54 4.656-.206 1.17-1.154 2.062-2.342 2.062h-18.332c-1.442 0-2.598-1.25-2.436-2.684.434-3.804 1.807-7.314 4.12-10.531 2.845-3.96 6.904-7.079 12.176-9.355 5.27-2.276 11.346-3.415 18.227-3.415 6.383 0 12.038 1.077 16.964 3.23 4.925 2.153 8.785 5.36 11.582 9.614 2.796 4.258 4.194 9.48 4.194 15.665v33.262l-.003 17.613a2.434 2.434 0 01-2.436 2.433m118.603-15.255v12.86c0 1.07-.686 2.043-1.716 2.337-3.6 1.027-7.534 1.541-11.796 1.541-7.77 0-13.724-1.954-17.856-5.865-4.133-3.91-6.199-10.072-6.199-18.487V63.616h-8.55a2.436 2.436 0 01-2.437-2.436V46.378a2.436 2.436 0 012.436-2.436h8.551V27.966a2.436 2.436 0 012.437-2.436h18.292a2.437 2.437 0 012.436 2.436v15.976h11a2.437 2.437 0 012.437 2.436V61.18a2.437 2.437 0 01-2.437 2.436h-11v36.454c0 3.169.618 5.323 1.855 6.46 1.238 1.14 3.341 1.707 6.311 1.707 1.254 0 2.435-.05 3.545-.15 1.443-.13 2.691.97 2.691 2.418M518 46.75l-.237 14.456a2.44 2.44 0 01-2.667 2.394c-2.439-.223-4.238-.302-5.387-.2-4.133.364-7.187 1.737-9.911 3.728-2.99 2.186-5.606 6.936-5.606 10.732v45.462a2.437 2.437 0 01-2.437 2.437h-18.29a2.436 2.436 0 01-2.437-2.437v-75.46a2.437 2.437 0 012.437-2.436h17.056c1.275 0 2.334.983 2.43 2.254l.529 6.001c2.03-3.664 4.472-5.64 7.578-7.416 3.423-1.956 6.4-2.323 10.21-2.323 1.776 0 3.338.121 4.686.365 1.19.215 2.062 1.233 2.046 2.442M227.371 63.07l-15.78-6.269c-9.336-3.659-16.08-6.301-16.08-12.776 0-6.442 5.38-10.287 14.392-10.287 7.593 0 14.101 2.13 21.29 7.048 1.043.714 2.468.478 3.254-.511l9.685-12.188c.821-1.033.659-2.519-.337-3.385-9.055-7.878-21.49-12.509-33.892-12.509-22.915 0-40.195 14.34-40.195 33.354 0 19.233 15.678 27.54 22.418 30.22l16.4 6.902c8.763 3.666 14.552 6.087 14.552 12.75 0 4.014-2.028 10.745-15.608 10.745-7.937 0-17.497-3.686-25.572-9.758-1.037-.78-2.494-.641-3.317.361l-11.293 13.754c-.842 1.024-.728 2.555.295 3.397 10.8 8.894 24.935 13.943 39.278 13.943 29.08 0 42.324-17.92 42.324-34.569 0-14.634-6.931-24.236-21.814-30.222m524.725-1.923c-2.772 2.456-6.805 3.682-12.101 3.682h-17.227V36.996h17.227c5.344 0 9.391 1.228 12.14 3.682 2.747 2.455 4.12 5.89 4.12 10.303 0 4.324-1.387 7.712-4.159 10.166m30.286 61.066L761.25 80.838c6.186-2.823 10.915-6.658 14.182-11.51 3.266-4.852 4.9-11.186 4.9-19.01 0-7.027-1.621-12.981-4.862-17.858-3.244-4.874-7.897-8.563-13.961-11.062-6.064-2.499-13.254-3.75-21.57-3.75h-38.92a2.437 2.437 0 00-2.438 2.436v103.238a2.437 2.437 0 002.437 2.437h19.258a2.437 2.437 0 002.437-2.437V84.54h14.896l20.068 39.883a2.436 2.436 0 002.175 1.337h20.36c1.82 0 2.998-1.924 2.17-3.546M681.054 19.968V123.32a2.44 2.44 0 01-2.44 2.44h-19.205a2.44 2.44 0 01-2.44-2.44V84.231h-41.032v39.088a2.44 2.44 0 01-2.44 2.44H594.22a2.44 2.44 0 01-2.44-2.44V19.97a2.44 2.44 0 012.44-2.44h19.279a2.44 2.44 0 012.44 2.44v44.86h41.032V19.97a2.44 2.44 0 012.44-2.44h19.204a2.44 2.44 0 012.44 2.44" fill="#00C4CC"/></g></svg>