<svg xmlns="http://www.w3.org/2000/svg" width="167" height="48" viewBox="-0.352 -0.782 167 48"><path d="M52.95 31.331c-8.068-15.008-11.022-20.548-11.183-20.864l-3.688 1.522c.057.171.111.333 11.475 21.471.497.924 1.531 2.848 3.458 2.826 1.913-.021 2.903-1.967 3.326-2.799l10.931-21.23-3.556-1.833L52.95 31.331zM79.91 11.31c-1.597 0-4.275.556-4.275 4.275v16.467c0 1.936.736 4.242 4.243 4.242h19.756v-4H79.877l-.222-.018-.021-.225V15.585l.022-.26c.075-.007.134-.016.253-.016h19.708v-4H79.91z"/><path d="M71.781 19.86h20.152v4H71.781zm37.983-8.519v20.657c0 2.842 1.484 4.344 4.291 4.344h18.513v-4h-18.513l-.271-.023c-.009-.088-.02-.167-.02-.32V11.341h-4zm35.322 0c-1.67 0-4.471.581-4.471 4.47v16.352c0 2.711 1.434 4.145 4.146 4.145h16.91c2.941 0 4.373-1.454 4.373-4.445v-7.24h-4v7.24c0 .207-.012.315-.021.426-.099.01-.183.02-.353.02h-16.91l-.135-.012a24.926 24.926 0 01-.012-.133V15.812c0-.211.014-.345.027-.439.096-.015.232-.031.443-.031h16.479c.221 0 .36.016.46.031l.021.219v2.431h4v-2.431c0-1.278-.437-4.25-4.481-4.25h-16.476z"/><path fill="#47A1B9" d="M10.974.939C5.767 2.834 1.703 7.322.367 12.651.12 13.641 0 14.657 0 15.679c0 4.694 2.524 9.514 6.746 12.453l2.572 1.949c.792.623 1.59 1.233 2.39 1.812-.513 1.135-.833 2.312-.865 3.395-.028.955.014 1.58.688 2.133 2.098 1.72 5.273 3.179 8.039 2.346 1.436-.432 2.449-1.492 2.851-2.984a1.75 1.75 0 00-3.379-.913c-.099.367-.245.475-.481.545-1.013.306-3.911-.588-4.08-1.006s.035-1.174.244-1.717c1.413.652 2.809.989 4.15.578 1.621-.498 3.289-3.049 3.531-4.164.242-1.113-.034-1.496-.563-1.889-.529-.392-4.583-1.876-6.798-.451-.504.324-.957.76-1.393 1.21a76.347 76.347 0 01-2.171-1.646l-2.735-2.071c-3.283-2.285-5.252-5.981-5.252-9.54 0-.75.088-1.495.269-2.218 1.041-4.153 4.341-7.793 8.408-9.273 3.663-1.333 7.435-.796 10.622 1.514 3.096 2.244 5.534 6.517 4.203 10.343-.645 1.857-1.487 2.771-3.464 3.76l-1.721.597c-2.504.776-5.62 1.741-5.769 4.358-.051.889.607 1.479 1.485 1.629s1.761-.576 2.009-1.431l-.062.216c.356-.494 2.394-1.126 3.373-1.429l2.25-.81c2.796-1.399 4.255-3.009 5.205-5.741 1.696-4.877-.547-10.769-5.456-14.326C20.689-.105 15.763-.804 10.974.939zm5.964 29.772c.528-.339 1.023-.427 1.52-.338-.196.284-.4.487-.609.552-.257.078-.625-.031-.992-.141.029-.019.051-.053.081-.073zm-1.1 10.759c-.915.766-1.412 1.713-1.412 2.619 0 .139.053.27.076.404 0 .011-.011.02-.011.031 0 .149.061.29.098.436.094.359.26.699.575.945.854.666 2.279 1.289 4.213.466 0 0 .646-.337 1.02-1.216.618-1.451.143-3.534-1.021-4.248-1.02-.626-2.376-.41-3.538.563z"/><path fill="#47A1B9" d="M18.543 8.623c-1.727 1.915-2.205 4.142-2.666 6.295-.089.416-.188.811-.283 1.211-1.602-2.142-3.404-4.405-5.56-4.11-.791.108-1.281.811-1.214 1.606.067.795.823 1.393 1.621 1.367l-.047.001c.696.101 2.354 2.328 3.062 3.279 0 0 1.267 1.457 1.9 2.429.64.982 1.667.583 2.147-.815.363-1.057 1.002-2.918 1.307-4.339.413-1.93.771-3.596 1.96-4.915a1.5 1.5 0 00-2.227-2.009z"/></svg>