<svg xmlns="http://www.w3.org/2000/svg" width="84" height="32" viewBox="0 0 84 32"><path d="M0 29.419v-6.125c0-1.43 1.262-2.579 2.82-2.579h5.766c3.865 0 4.883-3.695 4.883-5.646 0-1.497-.472-2.9-1.288-3.86-.866-.994-2.035-1.48-3.595-1.48H2.82C1.262 9.73 0 8.578 0 7.153c0-1.422 1.262-2.58 2.82-2.58h5.766c3.252 0 6.098 1.222 8.013 3.446 1.613 1.87 2.503 4.377 2.503 7.051 0 5.234-3.682 10.803-10.516 10.803H5.634v3.547c0 1.422-1.26 2.58-2.814 2.58C1.262 32 0 30.842 0 29.419zM31.669 4.57c-1.799 0-3.317.55-4.279 1.525-.061-.97-1.165-1.478-2.255-1.478-1.18 0-2.451.585-2.451 1.868l-.179 16.829c0 .61.272 1.125.787 1.488.443.312 1.033.484 1.659.484 1.137 0 2.36-.598 2.36-1.911l.18-9.997c0-2.663 1.692-4.522 4.116-4.522.29 0 .588.026.906.082 1.306.128 2.054-.986 2.107-2.078.048-1.024-.52-2.11-1.89-2.224a8.713 8.713 0 0 0-1.061-.066zm24.443 10.302c0 2.824-1.009 5.417-2.84 7.303-1.86 1.913-4.455 2.967-7.307 2.967-2.852 0-5.447-1.054-7.307-2.967-1.833-1.886-2.842-4.479-2.842-7.303C35.816 9 40.18 4.57 45.965 4.57c5.785 0 10.147 4.165 10.147 10.302zm-15.52.015c0 3.188 2.36 5.683 5.372 5.683 3.013 0 5.373-2.495 5.373-5.683 0-3.22-2.36-5.745-5.373-5.745-3.012 0-5.372 2.524-5.372 5.745zm42.924 7.062c-.192-.833-.821-1.372-1.598-1.372-.115 0-.23.011-.36.036-.456.11-.86.166-1.197.166-.914 0-1.339-.39-1.339-1.23V9.647h2.365c1.146 0 1.668-1.088 1.668-2.098 0-1.012-.522-2.1-1.668-2.1h-2.365V1.865C79.022.584 77.757 0 76.58 0c-1.176 0-2.44.584-2.44 1.865v3.583h-8.938V1.865C65.202.584 63.937 0 62.76 0c-1.176 0-2.441.584-2.441 1.865v3.583h-1.44c-.51 0-.93.23-1.212.663-.232.355-.36.838-.36 1.358 0 1.082.54 2.177 1.571 2.177h1.44v11.092c0 2.717 1.725 4.405 4.5 4.405 1.161 0 2.428-.289 3.769-.858 1.028-.45 1.295-1.526 1.109-2.335-.194-.833-.822-1.372-1.599-1.372-.114 0-.23.011-.36.036-.457.11-.86.166-1.2.166-.91 0-1.335-.39-1.335-1.23V9.647h8.937v11.092c0 2.717 1.724 4.405 4.501 4.405 1.161 0 2.426-.289 3.767-.858 1.028-.45 1.296-1.526 1.11-2.335z"/></svg>