<?xml version="1.0" encoding="utf-8"?>
<!-- Generator: Adobe Illustrator 18.0.0, SVG Export Plug-In . SVG Version: 6.00 Build 0)  -->
<!DOCTYPE svg PUBLIC "-//W3C//DTD SVG 1.1//EN" "http://www.w3.org/Graphics/SVG/1.1/DTD/svg11.dtd">
<svg version="1.1" id="" xmlns="http://www.w3.org/2000/svg" xmlns:xlink="http://www.w3.org/1999/xlink" x="0px"
	 y="0px" viewBox="0 0 52.6 43" enable-background="new 0 0 52.6 43" xml:space="preserve">
<g>
	<g>
		<path fill="#121D21" d="M0,42.7c0-0.2,0.1-0.3,0.3-0.3h5.1c0.1,0,0.3,0,0.4-0.1C5.9,42.1,6,42,6,41.9l0.1-0.8H0.7
			c-0.1,0-0.3,0-0.3-0.1c-0.1-0.1-0.1-0.2-0.1-0.3l0.5-3.5c0-0.1,0.1-0.3,0.2-0.3c0.1-0.1,0.2-0.1,0.4-0.1H9c0.1,0,0.2,0,0.3,0.1
			c0.1,0.1,0.1,0.2,0.1,0.3l-0.8,5.4c0,0.1-0.1,0.3-0.2,0.3C8.4,42.9,8.3,43,8.1,43H0.3c-0.1,0-0.1,0-0.2-0.1C0,42.8,0,42.8,0,42.7z
			 M6.6,37.7c0-0.1,0-0.3-0.1-0.3c-0.1-0.1-0.2-0.1-0.3-0.1H4c-0.1,0-0.3,0-0.4,0.1c-0.1,0.1-0.2,0.2-0.2,0.3L3.2,40
			c0,0.1,0,0.3,0.1,0.3c0.1,0.1,0.2,0.1,0.3,0.1h2.6L6.6,37.7z"/>
		<path fill="#121D21" d="M16.8,36.9c0,0.2-0.1,0.3-0.3,0.3h-1.9c-0.1,0-0.3,0-0.4,0.1c-0.1,0.1-0.2,0.2-0.2,0.3l-0.4,2.9
			c0,0.1-0.1,0.3-0.2,0.3c-0.1,0.1-0.2,0.1-0.4,0.1h-1.8c-0.1,0-0.2,0-0.3-0.1c-0.1-0.1-0.1-0.2-0.1-0.3l0.5-3.5
			c0-0.1,0.1-0.3,0.2-0.3c0.1-0.1,0.2-0.1,0.4-0.1h4.7c0.1,0,0.1,0,0.2,0.1C16.8,36.7,16.8,36.8,16.8,36.9z"/>
		<path fill="#121D21" d="M26.5,40.6c0,0.1-0.1,0.3-0.2,0.3s-0.2,0.1-0.4,0.1h-7.7c-0.1,0-0.2,0-0.3-0.1c-0.1-0.1-0.1-0.2-0.1-0.3
			l0.5-3.5c0-0.1,0.1-0.3,0.2-0.3c0.1-0.1,0.2-0.1,0.4-0.1h7.7c0.1,0,0.2,0,0.3,0.1c0.1,0.1,0.1,0.2,0.1,0.3L26.5,40.6z M23.2,40.5
			c0.1,0,0.3,0,0.4-0.1c0.1-0.1,0.2-0.2,0.2-0.3l0.3-2.3c0-0.1,0-0.3-0.1-0.3c-0.1-0.1-0.2-0.1-0.3-0.1h-2.1c-0.1,0-0.3,0-0.4,0.1
			c-0.1,0.1-0.2,0.2-0.2,0.3L20.7,40c0,0.1,0,0.3,0.1,0.3c0.1,0.1,0.2,0.1,0.3,0.1H23.2z"/>
		<path fill="#121D21" d="M37.2,36.6c0.1,0,0.2,0,0.3,0.1c0.1,0.1,0.1,0.2,0.1,0.3l-0.5,3.5c0,0.1-0.1,0.3-0.2,0.3s-0.2,0.1-0.4,0.1
			h-7.7c-0.1,0-0.2,0-0.3-0.1c-0.1-0.1-0.1-0.2-0.1-0.3l0.5-3.5c0-0.1,0.1-0.3,0.2-0.3c0.1-0.1,0.2-0.1,0.4-0.1h1.8
			c0.1,0,0.2,0,0.3,0.1c0.1,0.1,0.1,0.2,0.1,0.3L31.4,40c0,0.1,0,0.3,0.1,0.3c0.1,0.1,0.2,0.1,0.3,0.1h2.1c0.1,0,0.3,0,0.4-0.1
			c0.1-0.1,0.2-0.2,0.2-0.3l0.4-2.9c0-0.1,0.1-0.3,0.2-0.3c0.1-0.1,0.2-0.1,0.4-0.1H37.2z"/>
		<path fill="#121D21" d="M41.7,42.5c0,0.1-0.1,0.3-0.2,0.3c-0.1,0.1-0.2,0.1-0.4,0.1h-1.8c-0.1,0-0.2,0-0.3-0.1
			c-0.1-0.1-0.1-0.2-0.1-0.3l0.8-5.4c0-0.1,0.1-0.3,0.2-0.3c0.1-0.1,0.2-0.1,0.4-0.1h7.7c0.1,0,0.2,0,0.3,0.1
			c0.1,0.1,0.1,0.2,0.1,0.3l-0.5,3.5c0,0.1-0.1,0.3-0.2,0.3s-0.2,0.1-0.4,0.1h-5.4L41.7,42.5z M44.6,40.5c0.1,0,0.3,0,0.4-0.1
			c0.1-0.1,0.2-0.2,0.2-0.3l0.3-2.3c0-0.1,0-0.3-0.1-0.3c-0.1-0.1-0.2-0.1-0.3-0.1h-2.1c-0.1,0-0.3,0-0.4,0.1
			c-0.1,0.1-0.2,0.2-0.2,0.3L42,40.5H44.6z"/>
	</g>
	<g>
		<path fill="#121D21" d="M21.1,21.5c-1.4,1.8-3.1,3.6-4.9,5.3c-1.8,1.7-3.5,3-5.1,4c-1.2,0.8-2.4,1.4-3.7,1.8C6.2,33,5,33.2,4,33.2
			c-0.4,0-0.8,0-1.3-0.1c-0.5-0.1-0.9-0.2-1.3-0.4c-0.4-0.2-0.7-0.5-1-0.9c-0.3-0.4-0.4-0.9-0.4-1.6c0-0.8,0.3-1.8,0.9-3.2
			c0.6-1.3,1.3-2.7,2.1-4.2c0.8-1.4,1.6-2.8,2.4-4.1c0.8-1.3,1.4-2.3,1.9-2.9c0.3-0.5,0.8-0.9,1.6-1.2c0.7-0.3,1.2-0.5,1.5-0.5
			c0.3,0,0.4,0.1,0.4,0.3c0,0.1,0,0.3-0.1,0.5c-0.1,0.2-0.2,0.4-0.3,0.5c-0.8,1.2-1.6,2.5-2.4,3.9c-0.8,1.4-1.5,2.8-2.2,4.2
			c-0.7,1.3-1.2,2.6-1.6,3.7c-0.4,1.1-0.6,2-0.6,2.7c0,0.7,0.2,1.2,0.6,1.6C4.7,31.8,5.3,32,5.9,32c1.2,0,2.5-0.4,3.9-1.2
			c1.4-0.8,2.8-1.8,4.2-2.9c1.4-1.1,2.7-2.3,3.9-3.6c1.2-1.3,2.1-2.3,2.8-3.2c0.3-0.3,0.5-0.4,0.5-0.2C21.3,21,21.2,21.2,21.1,21.5z
			"/>
		<path fill="#121D21" d="M18.5,5.6C18.5,6.8,18,8,17,9.2c-1,1.2-2.2,1.8-3.5,1.8c-1.2,0-1.8-0.6-1.8-1.8c0-1.3,0.5-2.5,1.4-3.7
			c0.9-1.2,2.1-1.8,3.5-1.8C17.9,3.7,18.5,4.4,18.5,5.6z"/>
		<linearGradient id="SVGID_1_" gradientUnits="userSpaceOnUse" x1="24.5774" y1="5.729817e-10" x2="24.5774" y2="33.669">
			<stop  offset="0" style="stop-color:#EC2214"/>
			<stop  offset="1" style="stop-color:#A21400"/>
		</linearGradient>
		<path fill="url(#SVGID_1_)" d="M37.3,0.6c-0.5,0.1-1,0.3-1.6,0.7c-0.6,0.3-1,0.7-1.3,1.2c-1.4,1.9-2.7,3.9-4,6
			c-1.3,2.1-2.5,4.2-3.7,6.3h11.1c0.2,0.1,0.3,0.2,0.3,0.4c0,0.1-0.1,0.2-0.2,0.3c-0.5,0-1.2,0-2.1,0c-1,0-2,0.1-3.1,0.1
			c-1.1,0.1-2.3,0.1-3.5,0.2c-1.2,0.1-2.2,0.1-3.1,0.2c-1.7,3-2.9,5.5-3.8,7.6c-0.9,2.1-1.3,3.9-1.3,5.4c0,2.1,1,3.2,2.9,3.2
			c1,0,2-0.3,3.3-0.8c1.2-0.5,2.5-1.2,3.9-2c0.2-0.2,0.4-0.2,0.5,0c0.2,0.2,0.1,0.4-0.2,0.5c-2,1.3-3.9,2.3-5.6,2.9
			c-1.7,0.6-3.5,0.9-5.3,0.9c-1,0-1.8-0.3-2.5-0.8c-0.7-0.6-1.1-1.5-1.1-2.9c0-1.2,0.5-2.9,1.6-5.3c1.1-2.3,2.6-5.2,4.7-8.6
			c-0.7,0.1-11.4,0.4-11.6,0.4c-0.3,0-0.4-0.1-0.4-0.4c0.2-0.4,0.6-0.8,1.2-1.3L24,14.7c0.5-0.9,1.1-1.9,1.8-3
			c0.7-1.1,1.3-2.2,2-3.3c0.7-1.1,1.3-2.2,2-3.2c0.7-1,1.3-2,1.8-2.9c0.7-0.3,1.6-0.7,2.7-1.2c1.2-0.5,2.2-0.9,3.1-1.2
			c0.1,0,0.2,0.1,0.3,0.2C37.7,0.4,37.6,0.5,37.3,0.6z"/>
		<path fill="#121D21" d="M52.4,21.5c-1.4,1.8-3.1,3.6-4.9,5.3c-1.8,1.7-3.5,3-5.1,4c-1.2,0.8-2.4,1.4-3.7,1.8
			c-1.3,0.4-2.4,0.6-3.4,0.6c-0.4,0-0.8,0-1.3-0.1c-0.5-0.1-0.9-0.2-1.3-0.4c-0.4-0.2-0.7-0.5-1-0.9c-0.3-0.4-0.4-0.9-0.4-1.6
			c0-0.8,0.3-1.8,0.9-3.2c0.6-1.3,1.3-2.7,2.1-4.2c0.8-1.4,1.6-2.8,2.4-4.1c0.8-1.3,1.4-2.3,1.9-2.9c0.3-0.5,0.8-0.9,1.6-1.2
			c0.7-0.3,1.2-0.5,1.5-0.5c0.3,0,0.4,0.1,0.4,0.3c0,0.1,0,0.3-0.1,0.5c-0.1,0.2-0.2,0.4-0.3,0.5c-0.8,1.2-1.6,2.5-2.4,3.9
			c-0.8,1.4-1.5,2.8-2.2,4.2c-0.7,1.3-1.2,2.6-1.6,3.7c-0.4,1.1-0.6,2-0.6,2.7c0,0.7,0.2,1.2,0.6,1.6c0.4,0.3,0.9,0.5,1.6,0.5
			c1.2,0,2.5-0.4,3.9-1.2c1.4-0.8,2.8-1.8,4.2-2.9c1.4-1.1,2.7-2.3,3.9-3.6c1.2-1.3,2.1-2.3,2.8-3.2c0.3-0.3,0.5-0.4,0.5-0.2
			C52.6,21,52.6,21.2,52.4,21.5z"/>
		<path fill="#121D21" d="M48.3,5.6c0,1.2-0.5,2.4-1.5,3.5c-1,1.2-2.2,1.8-3.5,1.8c-1.2,0-1.8-0.6-1.8-1.8c0-1.3,0.5-2.5,1.4-3.7
			c0.9-1.2,2.1-1.8,3.5-1.8C47.6,3.7,48.3,4.4,48.3,5.6z"/>
	</g>
</g>
</svg>
