<svg xmlns="http://www.w3.org/2000/svg" viewBox="0 0 208 38"><defs><style>.a{fill:#0c66a5;}.b{fill:#13366a;}</style></defs><title>logo_lancers</title><path class="a" d="M197,38a16.8,16.8,0,0,1-9.2-2.7l-.4-.2,2.2-6.5.6.4a11.5,11.5,0,0,0,6.6,2.4c2,0,4-.8,4-2.6s-.7-2.2-4.3-3.4-7.8-3.4-7.8-8.7,4.2-9.4,10.1-9.4a14.7,14.7,0,0,1,7.5,2.1l.4.2-1.7,6.6-.7-.4a10,10,0,0,0-5.3-1.8c-1.9,0-3.1,1-3.1,2.4s.8,1.9,3.2,2.7c4.7,1.5,8.9,3.4,8.9,9.3S203.4,38,197,38ZM115.5,38a15.1,15.1,0,1,1,11.4-25l-5.2,4.4a8.3,8.3,0,1,0-.9,11.9l.9-.9,5.2,4.4A15,15,0,0,1,115.5,38ZM160,22.8a15.1,15.1,0,1,0-15.4,15.1h.3a15.1,15.1,0,0,0,13.6-8.7h-8.4a8.2,8.2,0,0,1-5.3,1.9h-.2a8.3,8.3,0,0,1-7.4-4.9h22.2a15.1,15.1,0,0,0,.4-3.4ZM145,14.5a8.3,8.3,0,0,1,7.6,4.9H137.4a8.3,8.3,0,0,1,7.6-4.9Zm35.4-6.8a15,15,0,0,0-8.3,2.5V7.7h-6.8V37.9h6.8V35.4h0V22.6a8.3,8.3,0,0,1,8.3-8.1,8.2,8.2,0,0,1,3.1.6L186,8.8a14.9,14.9,0,0,0-5.6-1.1Z" transform="translate(0 0)"/><path class="b" d="M88.5,37.9v-15a8.3,8.3,0,1,0-16.6,0v15H65.1V7.7h6.8V10l.3-.2a15.9,15.9,0,0,1,7.9-2.1c8.7,0,15.1,6.3,15.1,14.9V37.9ZM0,38V0H6.8V31.1h18V38H0Zm51.4-.1V35.4l-.3.2a15.1,15.1,0,1,1,0-25.7l.3.2V7.7h6.8V37.9H51.4ZM43.1,14.5A8.3,8.3,0,0,0,43,31.1h.2a8.3,8.3,0,0,0,0-16.6Z" transform="translate(0 0)"/></svg>