<svg id="blackback-solidcolor" xmlns="http://www.w3.org/2000/svg" viewBox="0 0 926 360"><defs><style>.cls-1{fill:#f57;}.cls-2{fill:#6b6b70;}.cls-3{fill:#b2b2ba;}</style></defs><title>アートボード 4</title><path class="cls-1" d="M295.58,74.64C265.92,50.8,222.41,56,198.46,85.55L166,125.62a16.39,16.39,0,0,0,12.74,26.71H273.7A27.87,27.87,0,0,1,301,174.41l.57,2.69,4.42-5.46A68.85,68.85,0,0,0,295.58,74.64Z"/><path class="cls-2" d="M108.51,259.53c29.66,23.85,73.17,18.66,97.12-10.91l32.45-40.07a16.39,16.39,0,0,0-12.74-26.71H130.4a27.87,27.87,0,0,1-27.26-22.08l-.57-2.69-4.42,5.46A68.85,68.85,0,0,0,108.51,259.53Z"/><path class="cls-3" d="M602.67,84.07V137c0,16.6,12.26,28.85,33.93,28.85,20.41,0,33.72-11.14,33.72-29.31V84.07H658.48v49.08c0,17.23-7.37,22.79-20.75,22.79-14,0-19.54-7.12-19.54-23.14V84.07Z"/><path class="cls-3" d="M384.75,103.24c0-6.58,4.52-10.43,13.32-10.43,9.59,0,15.9,2.67,23.75,7.8v-13A61.63,61.63,0,0,0,398,82.92c-17.52,0-30,8.63-30,21.62,0,26.61,40.85,22.31,40.85,40.19,0,7.1-5.21,11.1-12.71,11.1-11.06,0-20.93-5.53-28-11.39v13.35c8,5.74,18.26,7.93,29,7.93,17.21,0,28.31-9,28.31-22.48C425.6,114.8,384.75,120.4,384.75,103.24Z"/><path class="cls-3" d="M754.81,107.75c0-17.53-14.71-23.68-28.9-23.68H690v80.5h15.52V132.49h14.81l18.32,32.08h17.88l-19.36-33.95C745.85,128.29,754.81,121.23,754.81,107.75ZM705.56,94h15.21c10.39,0,17.36,4.71,17.36,14.46,0,10.4-8.29,14-17.36,14H705.56Z"/><polygon class="cls-3" points="571.53 164.57 590.94 164.57 557.33 119.78 589.02 84.07 575.79 84.07 536.37 128.5 536.37 84.07 520.85 84.07 520.85 164.57 536.37 164.57 536.37 143.39 546.81 131.63 571.53 164.57"/><path class="cls-3" d="M493.16,164.57h16.65L478.36,83.49H462.59l-31.45,81.07h12.7l8.27-21.31h32.78Zm-37.21-31.2L468.5,101l12.56,32.37Z"/><path class="cls-3" d="M826.64,164.57h16.65L811.84,83.49H796.07l-31.45,81.07h12.7l8.27-21.31h32.78Zm-37.21-31.2L802,101l12.56,32.37Z"/><rect class="cls-3" x="373.6" y="215.77" width="14.72" height="59.8"/><circle class="cls-3" cx="380.96" cy="200.13" r="8.74"/><path class="cls-3" d="M544.81,214.5c-18,0-28.58,12.76-28.58,31v.58c0,19,12,30.7,30.56,30.7a42,42,0,0,0,22-5.88V260.72c-6.89,5.12-13.81,7.6-21.79,7.6-8.59,0-14.9-5.93-14.9-19.42h40.24C572.35,227.5,564.23,214.5,544.81,214.5Zm-12.54,25.89C532.74,229.92,536,223,544.81,223c8.36,0,11.41,7.63,11.67,17.38Z"/><path class="cls-3" d="M725.77,214.5c-18,0-28.58,12.76-28.58,31v.58c0,19,12,30.7,30.56,30.7a42,42,0,0,0,22-5.88V260.72c-6.89,5.12-13.81,7.6-21.79,7.6-8.59,0-14.9-5.93-14.9-19.42H753.3C753.3,227.5,745.18,214.5,725.77,214.5Zm-12.54,25.89C713.7,229.92,717,223,725.77,223c8.36,0,11.41,7.63,11.67,17.38Z"/><path class="cls-3" d="M490.13,259.39V224.28h17.34v-8.51H490.13V198.06H475.41v17.71h-8v8.51h8v36c0,9.69,8,16.53,19.73,16.53,5.33,0,9.23-1,12.47-3.15v-7.46a25.12,25.12,0,0,1-9.18,1.63C493.47,267.86,490.13,264.53,490.13,259.39Z"/><path class="cls-3" d="M438.87,214.5c-7.93,0-16,5.3-19.55,10.12v-8.85H404.6v59.79h14.72V233.68c3.3-6.14,8.8-9.14,13.43-9.14a8.68,8.68,0,0,1,8.82,8.72v42.31h14.72V230C456.29,222.68,451.2,214.5,438.87,214.5Z"/><path class="cls-3" d="M667.21,214.5c-7.93,0-16,5.3-19.55,10.12v-8.85H632.94v59.79h14.72V233.68c3.3-6.14,8.8-9.14,13.43-9.14a8.68,8.68,0,0,1,8.82,8.72v42.31h14.72V230C684.63,222.68,679.54,214.5,667.21,214.5Z"/><path class="cls-3" d="M600.35,226.33V215.77H585.63v59.8h14.72V235.44c6.08-6.61,13.16-9.09,22.22-9.09V215.19A27.38,27.38,0,0,0,600.35,226.33Z"/><path class="cls-3" d="M784.39,259.39V224.28h17.34v-8.51H784.39V198.06H769.67v17.71h-8v8.51h8v36c0,9.69,8,16.53,19.73,16.53,5.33,0,9.23-1,12.47-3.15v-7.46a25.12,25.12,0,0,1-9.18,1.63C787.74,267.86,784.39,264.53,784.39,259.39Z"/></svg>