<?xml version="1.0" encoding="utf-8"?>
<svg version="1.1" xmlns="http://www.w3.org/2000/svg" width="167px" height="48px" viewBox="-0.352 -0.782 167 48">
<path d="M52.95,31.331c-8.068-15.008-11.022-20.548-11.183-20.864l-3.688,1.522c0.057,0.171,0.111,0.333,11.475,21.471
	c0.497,0.924,1.531,2.848,3.458,2.826c1.913-0.021,2.903-1.967,3.326-2.799l10.931-21.23l-3.556-1.833
	C63.714,10.424,53.292,30.667,52.95,31.331z"/>
<path d="M79.91,11.31c-1.597,0-4.275,0.556-4.275,4.275v16.467c0,1.936,0.736,4.242,4.243,4.242h19.756v-4H79.877
	c0,0-0.114-0.009-0.222-0.018c-0.01-0.11-0.021-0.225-0.021-0.225V15.585c0,0,0.011-0.13,0.022-0.26
	c0.075-0.007,0.134-0.016,0.253-0.016h19.708v-4H79.91z"/>
<rect x="71.781" y="19.86" width="20.152" height="4"/>
<path d="M109.764,11.341v20.657c0,2.842,1.484,4.344,4.291,4.344h18.513v-4h-18.513c0,0-0.136-0.012-0.271-0.023
	c-0.009-0.088-0.02-0.167-0.02-0.32V11.341H109.764z"/>
<path d="M145.086,11.341c-1.67,0-4.471,0.581-4.471,4.47v16.352c0,2.711,1.434,4.145,4.146,4.145h16.91
	c2.941,0,4.373-1.454,4.373-4.445v-7.24h-4v7.24c0,0.207-0.012,0.315-0.021,0.426c-0.099,0.01-0.183,0.02-0.353,0.02h-16.91
	c0,0-0.081-0.007-0.135-0.012c-0.005-0.053-0.012-0.133-0.012-0.133V15.812c0-0.211,0.014-0.345,0.027-0.439
	c0.096-0.015,0.232-0.031,0.443-0.031h16.479c0.221,0,0.36,0.016,0.46,0.031c0.01,0.107,0.021,0.219,0.021,0.219v2.431h4v-2.431
	c0-1.278-0.437-4.25-4.481-4.25H145.086z"/>
<path fill="#47A1B9" d="M10.974,0.939C5.767,2.834,1.703,7.322,0.367,12.651C0.12,13.641,0,14.657,0,15.679
	c0,4.694,2.524,9.514,6.746,12.453l2.572,1.949c0.792,0.623,1.59,1.233,2.39,1.812c-0.513,1.135-0.833,2.312-0.865,3.395
	c-0.028,0.955,0.014,1.58,0.688,2.133c2.098,1.72,5.273,3.179,8.039,2.346c1.436-0.432,2.449-1.492,2.851-2.984
	c0.252-0.934-0.301-1.895-1.234-2.146c-0.933-0.252-1.894,0.301-2.145,1.233c-0.099,0.367-0.245,0.475-0.481,0.545
	c-1.013,0.306-3.911-0.588-4.08-1.006s0.035-1.174,0.244-1.717c1.413,0.652,2.809,0.989,4.15,0.578
	c1.621-0.498,3.289-3.049,3.531-4.164c0.242-1.113-0.034-1.496-0.563-1.889c-0.529-0.392-4.583-1.876-6.798-0.451
	c-0.504,0.324-0.957,0.76-1.393,1.21c-0.751-0.548-1.5-1.118-2.171-1.646l-2.735-2.071c-3.283-2.285-5.252-5.981-5.252-9.54
	c0-0.75,0.088-1.495,0.269-2.218c1.041-4.153,4.341-7.793,8.408-9.273c3.663-1.333,7.435-0.796,10.622,1.514
	c3.096,2.244,5.534,6.517,4.203,10.343c-0.645,1.857-1.487,2.771-3.464,3.76c0,0-1.721,0.597-1.721,0.597
	c-2.504,0.776-5.62,1.741-5.769,4.358c-0.051,0.889,0.607,1.479,1.485,1.629s1.761-0.576,2.009-1.431l-0.062,0.216
	c0.356-0.494,2.394-1.126,3.373-1.429l2.25-0.81c2.796-1.399,4.255-3.009,5.205-5.741c1.696-4.877-0.547-10.769-5.456-14.326
	C20.689-0.105,15.763-0.804,10.974,0.939z M16.938,30.711c0.528-0.339,1.023-0.427,1.52-0.338c-0.196,0.284-0.4,0.487-0.609,0.552
	c-0.257,0.078-0.625-0.031-0.992-0.141C16.886,30.765,16.908,30.731,16.938,30.711z"/>
<path fill="#47A1B9" d="M15.838,41.47c-0.915,0.766-1.412,1.713-1.412,2.619c0,0.139,0.053,0.27,0.076,0.404
	c0,0.011-0.011,0.02-0.011,0.031c0,0.149,0.061,0.29,0.098,0.436c0,0,0,0,0,0c0.094,0.359,0.26,0.699,0.575,0.945
	c0.854,0.666,2.279,1.289,4.213,0.466c0,0,0.646-0.337,1.02-1.216c0.618-1.451,0.143-3.534-1.021-4.248
	C18.356,40.281,17,40.497,15.838,41.47z"/>
<path fill="#47A1B9" d="M18.543,8.623c-1.727,1.915-2.205,4.142-2.666,6.295c-0.089,0.416-0.188,0.811-0.283,1.211
	c-1.602-2.142-3.404-4.405-5.56-4.11c-0.791,0.108-1.281,0.811-1.214,1.606c0.067,0.795,0.823,1.393,1.621,1.367l-0.047,0.001
	c0.696,0.101,2.354,2.328,3.062,3.279c0,0,1.267,1.457,1.9,2.429c0.64,0.982,1.667,0.583,2.147-0.815
	c0.363-1.057,1.002-2.918,1.307-4.339c0.413-1.93,0.771-3.596,1.96-4.915c0.555-0.615,0.506-1.564-0.109-2.119
	C20.046,7.959,19.098,8.008,18.543,8.623z"/>
</svg>
